<svg width="529" height="409" viewBox="0 0 529 409" fill="none" xmlns="http://www.w3.org/2000/svg">
<rect x="0.816895" width="528.053" height="409" rx="24" fill="#EAEAEA"/>
<rect x="36.8169" y="33" width="456.053" height="343" rx="16" fill="white"/>
<path d="M60.8809 82L65.8409 70.64H67.4729L72.4329 82H70.4809L69.1849 79.024H64.0969L62.8169 82H60.8809ZM66.6409 73.168L64.8169 77.36H68.4649L66.6409 73.168ZM76.3493 82.16C75.4319 82.16 74.7066 81.856 74.1733 81.248C73.6399 80.6293 73.3733 79.808 73.3733 78.784V74H75.1333V78.496C75.1333 79.136 75.2719 79.6427 75.5493 80.016C75.8266 80.3787 76.2213 80.56 76.7333 80.56C77.3306 80.56 77.8053 80.336 78.1573 79.888C78.5093 79.4293 78.6853 78.7787 78.6853 77.936V74H80.4453V82H78.6853V80.912C78.2159 81.744 77.4373 82.16 76.3493 82.16ZM86.0934 82.16C85.0054 82.16 84.0881 81.7547 83.3414 80.944C82.6054 80.1333 82.2374 79.152 82.2374 78C82.2374 76.848 82.6054 75.8667 83.3414 75.056C84.0881 74.2453 85.0054 73.84 86.0934 73.84C86.6374 73.84 87.1387 73.9627 87.5974 74.208C88.0561 74.4427 88.4081 74.7307 88.6534 75.072V70H90.4134V82H88.6534V80.928C88.4081 81.2693 88.0561 81.5627 87.5974 81.808C87.1387 82.0427 86.6374 82.16 86.0934 82.16ZM84.7014 79.824C85.1494 80.3147 85.7201 80.56 86.4134 80.56C87.1067 80.56 87.6774 80.3147 88.1254 79.824C88.5734 79.3333 88.7974 78.7253 88.7974 78C88.7974 77.2747 88.5734 76.6667 88.1254 76.176C87.6774 75.6853 87.1067 75.44 86.4134 75.44C85.7201 75.44 85.1494 75.6853 84.7014 76.176C84.2534 76.6667 84.0294 77.2747 84.0294 78C84.0294 78.7253 84.2534 79.3333 84.7014 79.824ZM93.6778 72.256C93.3578 72.256 93.0804 72.144 92.8458 71.92C92.6111 71.6853 92.4938 71.4027 92.4938 71.072C92.4938 70.752 92.6111 70.48 92.8458 70.256C93.0804 70.0213 93.3578 69.904 93.6778 69.904C94.0084 69.904 94.2858 70.0213 94.5098 70.256C94.7338 70.48 94.8458 70.752 94.8458 71.072C94.8458 71.4027 94.7338 71.6853 94.5098 71.92C94.2858 72.144 94.0084 72.256 93.6778 72.256ZM92.7978 82V74H94.5578V82H92.7978ZM100.539 82.16C99.3228 82.16 98.3201 81.7707 97.5308 80.992C96.7521 80.2133 96.3628 79.216 96.3628 78C96.3628 76.816 96.7574 75.8293 97.5468 75.04C98.3361 74.24 99.3334 73.84 100.539 73.84C101.648 73.84 102.565 74.192 103.291 74.896C104.027 75.6 104.395 76.5707 104.395 77.808C104.395 78.0213 104.389 78.2133 104.379 78.384H98.0908C98.1334 79.0347 98.3841 79.5627 98.8428 79.968C99.3014 80.3627 99.8721 80.56 100.555 80.56C101.579 80.56 102.341 80.1547 102.843 79.344L104.187 80.304C103.419 81.5413 102.203 82.16 100.539 82.16ZM98.1708 77.104H102.619C102.523 76.5493 102.272 76.1173 101.867 75.808C101.472 75.488 101.008 75.328 100.475 75.328C99.9201 75.328 99.4241 75.4827 98.9868 75.792C98.5601 76.1013 98.2881 76.5387 98.1708 77.104ZM106.204 82V74H107.964V75.088C108.465 74.256 109.276 73.84 110.396 73.84C111.324 73.84 112.065 74.144 112.62 74.752C113.175 75.36 113.452 76.1707 113.452 77.184V82H111.692V77.472C111.692 76.832 111.543 76.336 111.244 75.984C110.945 75.6213 110.54 75.44 110.028 75.44C109.42 75.44 108.924 75.6693 108.54 76.128C108.156 76.5867 107.964 77.232 107.964 78.064V82H106.204ZM119.352 82.16C118.147 82.16 117.139 81.7653 116.328 80.976C115.528 80.176 115.128 79.184 115.128 78C115.128 76.816 115.528 75.8293 116.328 75.04C117.139 74.24 118.147 73.84 119.352 73.84C120.173 73.84 120.909 74.0373 121.56 74.432C122.221 74.8267 122.728 75.3653 123.08 76.048L121.544 76.88C121.341 76.4533 121.048 76.112 120.664 75.856C120.28 75.6 119.843 75.472 119.352 75.472C118.648 75.472 118.067 75.7173 117.608 76.208C117.149 76.688 116.92 77.2853 116.92 78C116.92 78.7147 117.149 79.3173 117.608 79.808C118.067 80.288 118.648 80.528 119.352 80.528C119.843 80.528 120.28 80.4 120.664 80.144C121.048 79.888 121.341 79.5467 121.544 79.12L123.08 79.952C122.728 80.6347 122.221 81.1733 121.56 81.568C120.909 81.9627 120.173 82.16 119.352 82.16ZM128.304 82.16C127.088 82.16 126.086 81.7707 125.296 80.992C124.518 80.2133 124.128 79.216 124.128 78C124.128 76.816 124.523 75.8293 125.312 75.04C126.102 74.24 127.099 73.84 128.304 73.84C129.414 73.84 130.331 74.192 131.056 74.896C131.792 75.6 132.16 76.5707 132.16 77.808C132.16 78.0213 132.155 78.2133 132.144 78.384H125.856C125.899 79.0347 126.15 79.5627 126.608 79.968C127.067 80.3627 127.638 80.56 128.32 80.56C129.344 80.56 130.107 80.1547 130.608 79.344L131.952 80.304C131.184 81.5413 129.968 82.16 128.304 82.16ZM125.936 77.104H130.384C130.288 76.5493 130.038 76.1173 129.632 75.808C129.238 75.488 128.774 75.328 128.24 75.328C127.686 75.328 127.19 75.4827 126.752 75.792C126.326 76.1013 126.054 76.5387 125.936 77.104ZM139.639 79.648C140.098 80.1067 140.663 80.336 141.335 80.336C142.007 80.336 142.573 80.1067 143.031 79.648C143.49 79.1787 143.719 78.592 143.719 77.888C143.719 77.184 143.49 76.6027 143.031 76.144C142.573 75.6747 142.007 75.44 141.335 75.44C140.663 75.44 140.098 75.6747 139.639 76.144C139.181 76.6027 138.951 77.184 138.951 77.888C138.951 78.592 139.181 79.1787 139.639 79.648ZM141.175 85.504C140.397 85.504 139.677 85.3707 139.015 85.104C138.354 84.848 137.826 84.4907 137.431 84.032L138.503 82.768C139.218 83.5467 140.103 83.936 141.159 83.936C141.853 83.936 142.429 83.712 142.887 83.264C143.346 82.8267 143.575 82.2187 143.575 81.44V80.704C143.319 81.0667 142.962 81.3653 142.503 81.6C142.045 81.8347 141.549 81.952 141.015 81.952C139.938 81.952 139.026 81.5627 138.279 80.784C137.543 79.9947 137.175 79.0293 137.175 77.888C137.175 76.7573 137.543 75.8027 138.279 75.024C139.026 74.2347 139.938 73.84 141.015 73.84C141.549 73.84 142.045 73.9573 142.503 74.192C142.962 74.416 143.319 74.7093 143.575 75.072V74H145.335V81.456C145.335 82.7893 144.951 83.7973 144.183 84.48C143.426 85.1627 142.423 85.504 141.175 85.504ZM147.704 82V74H149.464V75.424C149.613 74.976 149.885 74.6133 150.28 74.336C150.685 74.0587 151.117 73.92 151.576 73.92C151.853 73.92 152.083 73.9413 152.264 73.984V75.792C152.008 75.696 151.715 75.648 151.384 75.648C150.851 75.648 150.397 75.8667 150.024 76.304C149.651 76.7307 149.464 77.328 149.464 78.096V82H147.704ZM160.093 80.96C159.293 81.76 158.301 82.16 157.117 82.16C155.933 82.16 154.936 81.76 154.125 80.96C153.325 80.1493 152.925 79.1627 152.925 78C152.925 76.8373 153.325 75.856 154.125 75.056C154.936 74.2453 155.933 73.84 157.117 73.84C158.301 73.84 159.293 74.2453 160.093 75.056C160.904 75.856 161.309 76.8373 161.309 78C161.309 79.1627 160.904 80.1493 160.093 80.96ZM157.117 80.528C157.81 80.528 158.381 80.288 158.829 79.808C159.288 79.3173 159.517 78.7147 159.517 78C159.517 77.2853 159.288 76.688 158.829 76.208C158.381 75.7173 157.81 75.472 157.117 75.472C156.413 75.472 155.832 75.7173 155.373 76.208C154.925 76.688 154.701 77.2853 154.701 78C154.701 78.7147 154.925 79.3173 155.373 79.808C155.832 80.288 156.413 80.528 157.117 80.528ZM169.833 82L168.073 76.832L166.329 82H164.665L161.977 74H163.833L165.561 79.52L167.401 74H168.745L170.553 79.52L172.313 74H174.185L171.497 82H169.833ZM178.973 82.08C178.162 82.08 177.501 81.856 176.989 81.408C176.488 80.9493 176.237 80.288 176.237 79.424V75.568H174.573V74H176.237V71.776H177.997V74H180.285V75.568H177.997V79.136C177.997 79.6267 178.104 79.9787 178.317 80.192C178.53 80.3947 178.872 80.496 179.341 80.496C179.725 80.496 180.04 80.4427 180.285 80.336V81.904C179.901 82.0213 179.464 82.08 178.973 82.08ZM183.714 82H181.954V70H183.714V75.088C184.215 74.256 185.026 73.84 186.146 73.84C187.074 73.84 187.815 74.144 188.37 74.752C188.925 75.36 189.202 76.1707 189.202 77.184V82H187.442V77.472C187.442 76.832 187.293 76.336 186.994 75.984C186.695 75.6213 186.29 75.44 185.778 75.44C185.17 75.44 184.674 75.6693 184.29 76.128C183.906 76.5867 183.714 77.232 183.714 78.064V82ZM195.028 78.384V76.656H199.332V78.384H195.028Z" fill="#3C3C3C"/>
<path d="M205.459 82V70.64H207.331V80.208H212.531V82H205.459ZM217.109 82.16C216.021 82.16 215.104 81.7547 214.357 80.944C213.621 80.1333 213.253 79.152 213.253 78C213.253 76.848 213.621 75.8667 214.357 75.056C215.104 74.2453 216.021 73.84 217.109 73.84C217.653 73.84 218.154 73.9627 218.613 74.208C219.072 74.4427 219.424 74.7307 219.669 75.072V74H221.429V82H219.669V80.928C219.424 81.2693 219.072 81.5627 218.613 81.808C218.154 82.0427 217.653 82.16 217.109 82.16ZM215.717 79.824C216.165 80.3147 216.736 80.56 217.429 80.56C218.122 80.56 218.693 80.3147 219.141 79.824C219.589 79.3333 219.813 78.7253 219.813 78C219.813 77.2747 219.589 76.6667 219.141 76.176C218.693 75.6853 218.122 75.44 217.429 75.44C216.736 75.44 216.165 75.6853 215.717 76.176C215.269 76.6667 215.045 77.2747 215.045 78C215.045 78.7253 215.269 79.3333 215.717 79.824ZM226.357 82.16C225.621 82.16 224.971 82.0213 224.405 81.744C223.84 81.456 223.419 81.0293 223.141 80.464L224.437 79.536C224.597 79.8773 224.853 80.1493 225.205 80.352C225.557 80.544 225.941 80.64 226.357 80.64C226.688 80.64 226.96 80.5653 227.173 80.416C227.397 80.2667 227.509 80.0587 227.509 79.792C227.509 79.5573 227.419 79.3653 227.237 79.216C227.067 79.0667 226.747 78.9173 226.277 78.768L225.573 78.576C224.155 78.192 223.456 77.376 223.477 76.128C223.477 75.4347 223.749 74.88 224.293 74.464C224.837 74.048 225.52 73.84 226.341 73.84C227.579 73.84 228.48 74.2933 229.045 75.2L227.829 76.128C227.424 75.584 226.917 75.312 226.309 75.312C226.021 75.312 225.771 75.3813 225.557 75.52C225.344 75.648 225.237 75.8293 225.237 76.064C225.237 76.2773 225.307 76.4587 225.445 76.608C225.584 76.7573 225.835 76.8907 226.197 77.008L227.013 77.248C227.76 77.472 228.32 77.776 228.693 78.16C229.067 78.5333 229.253 79.04 229.253 79.68C229.253 80.4373 228.981 81.04 228.437 81.488C227.893 81.936 227.2 82.16 226.357 82.16ZM234.442 82.08C233.631 82.08 232.97 81.856 232.458 81.408C231.956 80.9493 231.706 80.288 231.706 79.424V75.568H230.042V74H231.706V71.776H233.466V74H235.754V75.568H233.466V79.136C233.466 79.6267 233.572 79.9787 233.786 80.192C233.999 80.3947 234.34 80.496 234.81 80.496C235.194 80.496 235.508 80.4427 235.754 80.336V81.904C235.37 82.0213 234.932 82.08 234.442 82.08ZM251.38 82V77.504C251.38 76.8533 251.258 76.3467 251.012 75.984C250.778 75.6213 250.426 75.44 249.956 75.44C249.391 75.44 248.938 75.6587 248.596 76.096C248.255 76.5333 248.074 77.1467 248.052 77.936V82H246.292V77.504C246.292 76.8533 246.17 76.3467 245.924 75.984C245.69 75.6213 245.338 75.44 244.868 75.44C244.282 75.44 243.812 75.6693 243.46 76.128C243.119 76.5867 242.948 77.232 242.948 78.064V82H241.188V74H242.948V75.088C243.439 74.256 244.196 73.84 245.22 73.84C246.426 73.84 247.252 74.368 247.7 75.424C247.924 74.9227 248.266 74.5333 248.724 74.256C249.194 73.9787 249.706 73.84 250.26 73.84C251.156 73.84 251.86 74.144 252.372 74.752C252.884 75.36 253.14 76.1813 253.14 77.216V82H251.38ZM261.984 80.96C261.184 81.76 260.192 82.16 259.008 82.16C257.824 82.16 256.826 81.76 256.016 80.96C255.216 80.1493 254.816 79.1627 254.816 78C254.816 76.8373 255.216 75.856 256.016 75.056C256.826 74.2453 257.824 73.84 259.008 73.84C260.192 73.84 261.184 74.2453 261.984 75.056C262.794 75.856 263.2 76.8373 263.2 78C263.2 79.1627 262.794 80.1493 261.984 80.96ZM259.008 80.528C259.701 80.528 260.272 80.288 260.72 79.808C261.178 79.3173 261.408 78.7147 261.408 78C261.408 77.2853 261.178 76.688 260.72 76.208C260.272 75.7173 259.701 75.472 259.008 75.472C258.304 75.472 257.722 75.7173 257.264 76.208C256.816 76.688 256.592 77.2853 256.592 78C256.592 78.7147 256.816 79.3173 257.264 79.808C257.722 80.288 258.304 80.528 259.008 80.528ZM264.97 82V74H266.73V75.088C267.231 74.256 268.042 73.84 269.162 73.84C270.09 73.84 270.831 74.144 271.386 74.752C271.94 75.36 272.218 76.1707 272.218 77.184V82H270.458V77.472C270.458 76.832 270.308 76.336 270.01 75.984C269.711 75.6213 269.306 75.44 268.794 75.44C268.186 75.44 267.69 75.6693 267.306 76.128C266.922 76.5867 266.73 77.232 266.73 78.064V82H264.97ZM277.848 82.08C277.037 82.08 276.376 81.856 275.864 81.408C275.363 80.9493 275.112 80.288 275.112 79.424V75.568H273.448V74H275.112V71.776H276.872V74H279.16V75.568H276.872V79.136C276.872 79.6267 276.979 79.9787 277.192 80.192C277.405 80.3947 277.747 80.496 278.216 80.496C278.6 80.496 278.915 80.4427 279.16 80.336V81.904C278.776 82.0213 278.339 82.08 277.848 82.08ZM282.589 82H280.829V70H282.589V75.088C283.09 74.256 283.901 73.84 285.021 73.84C285.949 73.84 286.69 74.144 287.245 74.752C287.8 75.36 288.077 76.1707 288.077 77.184V82H286.317V77.472C286.317 76.832 286.168 76.336 285.869 75.984C285.57 75.6213 285.165 75.44 284.653 75.44C284.045 75.44 283.549 75.6693 283.165 76.128C282.781 76.5867 282.589 77.232 282.589 78.064V82Z" fill="#949494"/>
<circle cx="412.37" cy="75" r="13" fill="#00BD82"/>
<path d="M411.504 70.4756C411.888 69.8089 412.851 69.8089 413.236 70.4756L416.721 76.5122C417.106 77.1788 416.625 78.0122 415.855 78.0122H408.884C408.115 78.0122 407.633 77.1788 408.018 76.5122L411.504 70.4756Z" fill="white"/>
<path d="M439.738 81V71.384H437.45L438.794 69.64H441.498V81H439.738ZM447.365 81.16C446.33 81.16 445.424 80.8347 444.645 80.184C443.866 79.5333 443.466 78.744 443.445 77.816H445.253C445.37 78.296 445.621 78.6853 446.005 78.984C446.4 79.2827 446.853 79.432 447.365 79.432C447.994 79.432 448.506 79.2293 448.901 78.824C449.296 78.408 449.493 77.9067 449.493 77.32C449.493 76.712 449.296 76.2107 448.901 75.816C448.517 75.4107 448.021 75.208 447.413 75.208C446.496 75.208 445.834 75.5973 445.429 76.376L443.845 75.88L445.061 69.64H450.469V71.352H446.437L445.909 74.072C446.378 73.7413 446.97 73.576 447.685 73.576C448.752 73.576 449.616 73.944 450.277 74.68C450.938 75.416 451.269 76.3547 451.269 77.496C451.269 78.5627 450.901 79.4427 450.165 80.136C449.44 80.8187 448.506 81.16 447.365 81.16ZM457.133 81H455.277L462.477 69.64H464.333L457.133 81ZM464.061 81.128C463.186 81.128 462.439 80.8187 461.821 80.2C461.213 79.5813 460.909 78.84 460.909 77.976C460.909 77.1013 461.213 76.36 461.821 75.752C462.439 75.1333 463.186 74.824 464.061 74.824C464.925 74.824 465.666 75.1333 466.285 75.752C466.903 76.36 467.213 77.1013 467.213 77.976C467.213 78.84 466.903 79.5813 466.285 80.2C465.666 80.8187 464.925 81.128 464.061 81.128ZM462.909 79.112C463.229 79.432 463.613 79.592 464.061 79.592C464.509 79.592 464.882 79.4373 465.181 79.128C465.49 78.808 465.645 78.424 465.645 77.976C465.645 77.528 465.49 77.1493 465.181 76.84C464.882 76.52 464.509 76.36 464.061 76.36C463.613 76.36 463.229 76.52 462.909 76.84C462.599 77.16 462.445 77.5387 462.445 77.976C462.445 78.4133 462.599 78.792 462.909 79.112ZM455.549 75.816C454.674 75.816 453.927 75.5067 453.309 74.888C452.701 74.2693 452.397 73.528 452.397 72.664C452.397 71.7893 452.701 71.048 453.309 70.44C453.927 69.8213 454.674 69.512 455.549 69.512C456.413 69.512 457.154 69.8213 457.773 70.44C458.391 71.048 458.701 71.7893 458.701 72.664C458.701 73.528 458.391 74.2693 457.773 74.888C457.154 75.5067 456.413 75.816 455.549 75.816ZM455.549 74.28C455.986 74.28 456.359 74.12 456.669 73.8C456.989 73.48 457.149 73.1013 457.149 72.664C457.149 72.2267 456.989 71.848 456.669 71.528C456.359 71.208 455.986 71.048 455.549 71.048C455.101 71.048 454.722 71.208 454.413 71.528C454.103 71.8373 453.949 72.216 453.949 72.664C453.949 73.112 454.103 73.496 454.413 73.816C454.722 74.1253 455.101 74.28 455.549 74.28Z" fill="#3C3C3C"/>
<path d="M66.8433 236.5C66.8433 230.977 71.3204 226.5 76.8433 226.5H80.8433C86.3661 226.5 90.8433 230.977 90.8433 236.5V290.5H66.8433V236.5Z" fill="#00BD82"/>
<path d="M66.8433 290.5H90.8433V312.5C90.8433 318.023 86.3661 322.5 80.8433 322.5H76.8433C71.3204 322.5 66.8433 318.023 66.8433 312.5V290.5Z" fill="#FF3B78"/>
<rect x="61.8433" y="337.5" width="34" height="9.5" rx="4.75" fill="#D9D9D9"/>
<path d="M128.843 216C128.843 210.477 133.32 206 138.843 206H142.843C148.366 206 152.843 210.477 152.843 216V290H128.843V216Z" fill="#00BD82"/>
<path d="M128.843 290H152.843V303.5C152.843 309.023 148.366 313.5 142.843 313.5H138.843C133.32 313.5 128.843 309.023 128.843 303.5V290Z" fill="#FF3B78"/>
<rect x="123.843" y="337.5" width="34" height="9.5" rx="4.75" fill="#D9D9D9"/>
<path d="M190.843 190.5C190.843 184.977 195.32 180.5 200.843 180.5H204.843C210.366 180.5 214.843 184.977 214.843 190.5V290H190.843V190.5Z" fill="#00BD82"/>
<path d="M190.843 290H214.843V303.5C214.843 309.023 210.366 313.5 204.843 313.5H200.843C195.32 313.5 190.843 309.023 190.843 303.5V290Z" fill="#FF3B78"/>
<rect x="185.843" y="337.5" width="34" height="9.5" rx="4.75" fill="#D9D9D9"/>
<path d="M252.843 175C252.843 169.477 257.32 165 262.843 165H266.843C272.366 165 276.843 169.477 276.843 175V287.673H252.843V175Z" fill="#00BD82"/>
<path d="M252.843 287.673H276.843V296.5C276.843 302.023 272.366 306.5 266.843 306.5H262.843C257.32 306.5 252.843 302.023 252.843 296.5V287.673Z" fill="#FF3B78"/>
<rect x="247.843" y="337.5" width="34" height="9.5" rx="4.75" fill="#D9D9D9"/>
<path d="M314.843 150C314.843 144.477 319.32 140 324.843 140H328.843C334.366 140 338.843 144.477 338.843 150V287.173H314.843V150Z" fill="#00BD82"/>
<path d="M314.843 287.173H338.843V312.5C338.843 318.023 334.366 322.5 328.843 322.5H324.843C319.32 322.5 314.843 318.023 314.843 312.5V287.173Z" fill="#FF3B78"/>
<rect x="309.843" y="337.5" width="34" height="9.5" rx="4.75" fill="#D9D9D9"/>
<path d="M376.843 129.5C376.843 123.977 381.32 119.5 386.843 119.5H390.843C396.366 119.5 400.843 123.977 400.843 129.5V287.423H376.843V129.5Z" fill="#00BD82"/>
<path d="M376.843 287.423H400.843V305.5C400.843 311.023 396.366 315.5 390.843 315.5H386.843C381.32 315.5 376.843 311.023 376.843 305.5V287.423Z" fill="#FF3B78"/>
<rect x="371.843" y="337.5" width="34" height="9.5" rx="4.75" fill="#D9D9D9"/>
<path d="M438.843 117C438.843 111.477 443.32 107 448.843 107H452.843C458.366 107 462.843 111.477 462.843 117V287.423H438.843V117Z" fill="#00BD82"/>
<path d="M438.843 287.423H462.843V295.5C462.843 301.023 458.366 305.5 452.843 305.5H448.843C443.32 305.5 438.843 301.023 438.843 295.5V287.423Z" fill="#FF3B78"/>
<rect x="433.843" y="337.5" width="34" height="9.5" rx="4.75" fill="#D9D9D9"/>
</svg>
