<svg width="54" height="42" viewBox="0 0 54 42" fill="none" xmlns="http://www.w3.org/2000/svg">
<path id="&#226;&#128;&#157;" d="M23.16 20.04L9.72 41.64H0L8.88 23.4C6.88 22.6 5.16 21.2 3.72 19.2C2.36 17.12 1.68 14.84 1.68 12.36C1.68 8.99999 2.84 6.15999 5.16 3.83999C7.48 1.51999 10.32 0.359985 13.68 0.359985C17.04 0.359985 19.88 1.51999 22.2 3.83999C24.52 6.15999 25.68 8.99999 25.68 12.36C25.68 14.92 24.84 17.48 23.16 20.04ZM50.76 20.04L37.32 41.64H27.6L36.48 23.4C34.48 22.6 32.76 21.2 31.32 19.2C29.96 17.12 29.28 14.84 29.28 12.36C29.28 8.99999 30.44 6.15999 32.76 3.83999C35.08 1.51999 37.92 0.359985 41.28 0.359985C44.64 0.359985 47.48 1.51999 49.8 3.83999C52.12 6.15999 53.28 8.99999 53.28 12.36C53.28 14.92 52.44 17.48 50.76 20.04Z" fill="#EC671B"/>
</svg>
