<svg width="139" height="32" viewBox="0 0 139 32" fill="none" xmlns="http://www.w3.org/2000/svg">
<g clip-path="url(#clip0_64_717)">
<path d="M39.0789 6.80463H45.7363C51.4375 6.80463 55.0421 10.4828 55.0421 16.2207C55.0421 21.9586 51.4559 25.6368 45.7363 25.6368H39.0789V6.80463ZM45.5892 22.1977C49.1754 22.1977 51.1432 19.8989 51.1432 16.2391C51.1432 12.5609 49.1754 10.2621 45.5892 10.2621H42.9777V22.1977H45.5892Z" fill="#007EE5"/>
<path d="M65.1386 15.6874C64.6236 15.3747 63.9432 15.2276 63.2259 15.2276C61.9386 15.2276 60.8903 15.908 60.6144 17.1586V25.6552H56.8259V11.9356H60.6328V13.2782C61.2213 12.3034 62.3432 11.623 63.7041 11.623C64.3478 11.623 64.9363 11.7517 65.1386 11.8621V15.6874Z" fill="#007EE5"/>
<path d="M72.734 25.9678C68.7432 25.9678 66.0029 23.0253 66.0029 18.8138C66.0029 14.5839 68.7432 11.623 72.734 11.623C76.7248 11.623 79.4466 14.5655 79.4466 18.8138C79.4466 23.0253 76.7248 25.9678 72.734 25.9678ZM72.734 14.8598C70.8213 14.8598 69.7914 16.5149 69.7914 18.8138C69.7914 21.0759 70.8397 22.7494 72.734 22.7494C74.6282 22.7494 75.6765 21.0943 75.6765 18.8138C75.6765 16.5149 74.6282 14.8598 72.734 14.8598Z" fill="#007EE5"/>
<path d="M84.8904 30.7311H81.0835V11.9357H84.8904V13.0759C85.4973 12.3403 86.8582 11.6414 88.3295 11.6414C92.3203 11.6414 94.5823 14.9518 94.5823 18.8322C94.5823 22.6943 92.3203 25.9862 88.3295 25.9862C86.8582 25.9862 85.4973 25.2874 84.8904 24.5518V30.7311ZM84.8904 21.0575C85.3502 22.0138 86.3617 22.6575 87.4651 22.6575C89.5249 22.6575 90.7571 21.0023 90.7571 18.8138C90.7571 16.6069 89.5249 14.9518 87.4651 14.9518C86.3249 14.9518 85.3502 15.6322 84.8904 16.5518V21.0575Z" fill="#007EE5"/>
<path d="M100.063 25.6552H96.219V5.70117H100.063V13.0759C100.67 12.3403 102.03 11.6414 103.502 11.6414C107.493 11.6414 109.736 14.8966 109.736 18.8322C109.736 22.7678 107.493 25.9862 103.502 25.9862C102.03 25.9862 100.67 25.2874 100.063 24.5517V25.6552ZM100.063 21.0575C100.486 22.0138 101.497 22.6575 102.637 22.6575C104.697 22.6575 105.929 21.0023 105.929 18.8138C105.929 16.6069 104.697 14.9517 102.637 14.9517C101.534 14.9517 100.486 15.6322 100.063 16.5517V21.0575Z" fill="#007EE5"/>
<path d="M117.828 26.0046C113.837 26.0046 111.097 23.0621 111.097 18.8506C111.097 14.6207 113.837 11.6598 117.828 11.6598C121.819 11.6598 124.541 14.6023 124.541 18.8506C124.541 23.0621 121.801 26.0046 117.828 26.0046ZM117.828 14.8966C115.916 14.8966 114.886 16.5517 114.886 18.8506C114.886 21.1127 115.934 22.7862 117.828 22.7862C119.722 22.7862 120.771 21.1311 120.771 18.8506C120.771 16.5517 119.722 14.8966 117.828 14.8966Z" fill="#007EE5"/>
<path d="M133.093 18.5747L138.095 25.6736H133.883L130.941 21.3701L127.962 25.6736H123.971L128.918 18.6667L124.265 11.954H128.476L131.125 15.8529L133.81 11.954H137.801L133.093 18.5747Z" fill="#007EE5"/>
<path d="M10.4627 0.349426L0.550049 6.73103L7.40982 12.2667L17.3776 6.10575L10.4627 0.349426Z" fill="#007EE5"/>
<path d="M0.550049 17.6736L10.4627 24.1839L17.3776 18.4276L7.40982 12.2667L0.550049 17.6736Z" fill="#007EE5"/>
<path d="M17.3777 18.4276L24.2926 24.1839L34.1685 17.7471L27.3271 12.2667L17.3777 18.4276Z" fill="#007EE5"/>
<path d="M34.1685 6.78621L24.2926 0.349426L17.3777 6.10575L27.3271 12.2667L34.1685 6.78621Z" fill="#007EE5"/>
<path d="M17.396 19.6598L10.4627 25.4161L7.4834 23.4851V25.6552L17.396 31.5954L27.2903 25.6552V23.4851L24.3294 25.4161L17.396 19.6598Z" fill="#007EE5"/>
</g>
<defs>
<clipPath id="clip0_64_717">
<rect width="137.931" height="32" fill="white" transform="translate(0.366211)"/>
</clipPath>
</defs>
</svg>
