<svg width="53" height="53" viewBox="0 0 53 53" fill="none" xmlns="http://www.w3.org/2000/svg">
<path fill-rule="evenodd" clip-rule="evenodd" d="M49.4495 13.1198C49.4327 13.0865 49.4172 13.0528 49.3985 13.02C49.373 12.9758 49.3445 12.9345 49.3162 12.893C42.0993 0.530574 26.2454 -3.67023 13.8538 3.49654C1.46224 10.6633 -2.80278 26.5 4.3137 38.9205C4.3307 38.9535 4.3462 38.9873 4.36495 39.02C4.38295 39.051 4.4047 39.078 4.42395 39.1078C11.6359 51.4637 27.4766 55.6691 39.8674 48.5174C52.2583 41.3656 56.5406 25.5455 49.4492 13.12L49.4495 13.1198ZM44.8485 13.3378L28.8817 22.556V4.11203C35.2979 4.70162 41.1334 8.07343 44.8485 13.3378ZM26.8817 48.02C19.7344 48.0188 13.0337 44.5438 8.91495 38.7025L46.8532 16.799C50.0006 23.6105 49.4585 31.5565 45.4151 37.8773C41.3718 44.1982 34.3852 48.0217 26.8817 48.02Z" fill="#00BE82"/>
</svg>
