<svg width="124" height="52" viewBox="0 0 124 52" fill="none" xmlns="http://www.w3.org/2000/svg">
<path fill-rule="evenodd" clip-rule="evenodd" d="M123.634 26.8547C123.634 18.1026 119.395 11.1966 111.292 11.1966C103.155 11.1966 98.2322 18.1026 98.2322 26.7863C98.2322 37.0769 104.044 42.2735 112.386 42.2735C116.454 42.2735 119.531 41.3504 121.856 40.0513V33.2137C119.531 34.3761 116.865 35.094 113.48 35.094C110.164 35.094 107.224 33.9316 106.848 29.8975H123.566C123.566 29.453 123.634 27.6752 123.634 26.8547ZM106.745 23.6069C106.745 19.7436 109.104 18.1368 111.258 18.1368C113.343 18.1368 115.566 19.7436 115.566 23.6069H106.745Z" fill="#32325D"/>
<path fill-rule="evenodd" clip-rule="evenodd" d="M85.0356 11.1966C81.6851 11.1966 79.5313 12.7692 78.3347 13.8633L77.8903 11.7436H70.3689V51.6069L78.9159 49.7949L78.9501 40.1197C80.1809 41.0086 81.9928 42.2735 85.0014 42.2735C91.121 42.2735 96.6937 37.3504 96.6937 26.5128C96.6595 16.5983 91.0185 11.1966 85.0356 11.1966ZM82.9843 34.7522C80.9672 34.7522 79.7706 34.0342 78.9501 33.1453L78.9159 20.4616C79.8048 19.4701 81.0356 18.7863 82.9843 18.7863C86.0954 18.7863 88.2492 22.2735 88.2492 26.7522C88.2492 31.3333 86.1296 34.7522 82.9843 34.7522Z" fill="#32325D"/>
<path fill-rule="evenodd" clip-rule="evenodd" d="M58.6082 9.17951L67.1893 7.33336V0.393188L58.6082 2.20515V9.17951Z" fill="#32325D"/>
<path d="M67.1893 11.7778H58.6082V41.6924H67.1893V11.7778Z" fill="#32325D"/>
<path fill-rule="evenodd" clip-rule="evenodd" d="M49.4116 14.3077L48.8646 11.7778H41.48V41.6924H50.027V21.4188C52.0441 18.7864 55.4629 19.265 56.5227 19.6411V11.7778C55.4287 11.3676 51.4287 10.6154 49.4116 14.3077Z" fill="#32325D"/>
<path fill-rule="evenodd" clip-rule="evenodd" d="M32.3175 4.35901L23.9756 6.13679L23.9414 33.5214C23.9414 38.5812 27.7363 42.3077 32.7961 42.3077C35.5995 42.3077 37.6508 41.7949 38.779 41.1795V34.2393C37.685 34.6838 32.2833 36.2564 32.2833 31.1966V19.0599H38.779V11.7778H32.2833L32.3175 4.35901Z" fill="#32325D"/>
<path fill-rule="evenodd" clip-rule="evenodd" d="M9.20646 20.4616C9.20646 19.1282 10.3005 18.6154 12.1124 18.6154C14.7107 18.6154 17.9928 19.4017 20.5911 20.8034V12.7692C17.7535 11.641 14.95 11.1966 12.1124 11.1966C5.17227 11.1966 0.556885 14.8205 0.556885 20.8718C0.556885 30.3077 13.5483 28.8034 13.5483 32.8718C13.5483 34.4445 12.1808 34.9573 10.2663 34.9573C7.42868 34.9573 3.80475 33.7949 0.932953 32.2222V40.359C4.11244 41.7265 7.32612 42.3077 10.2663 42.3077C17.3774 42.3077 22.2663 38.7863 22.2663 32.6667C22.2321 22.4786 9.20646 24.2906 9.20646 20.4616Z" fill="#32325D"/>
</svg>
