<svg width="112" height="28" viewBox="0 0 112 28" fill="none" xmlns="http://www.w3.org/2000/svg">
<path d="M36.2959 22.0478L37.6781 18.8376C39.1717 19.9523 41.1558 20.5319 43.1176 20.5319C44.5666 20.5319 45.4806 19.9746 45.4806 19.1274C45.4583 16.7644 36.8086 18.6147 36.7418 12.6848C36.7195 9.67522 39.3946 7.35675 43.1844 7.35675C45.436 7.35675 47.6876 7.91408 49.2927 9.18478L47.9997 12.4618C46.5284 11.5255 44.7004 10.8568 42.9615 10.8568C41.78 10.8568 40.9997 11.4141 40.9997 12.1275C41.022 14.4459 49.7386 13.1752 49.8277 18.8376C49.8277 21.9141 47.2195 24.0765 43.4742 24.0765C40.7322 24.0765 38.2131 23.43 36.2959 22.0478Z" fill="black"/>
<path d="M89.331 17.6784C88.6399 18.8822 87.3469 19.7071 85.8533 19.7071C83.6463 19.7071 81.8628 17.9236 81.8628 15.7166C81.8628 13.5096 83.6463 11.7262 85.8533 11.7262C87.3469 11.7262 88.6399 12.551 89.331 13.7548L93.1431 11.637C91.7163 9.09561 88.9743 7.35675 85.8533 7.35675C81.2386 7.35675 77.4934 11.102 77.4934 15.7166C77.4934 20.3313 81.2386 24.0765 85.8533 24.0765C88.9966 24.0765 91.7163 22.3599 93.1431 19.7962L89.331 17.6784Z" fill="black"/>
<path d="M56.5156 0.423584H51.7449V23.7643H56.5156V0.423584Z" fill="black"/>
<path d="M95.0156 0.423584V23.7643H99.7863V16.7644L105.449 23.7643H111.557L104.356 15.4491L111.022 7.6911H105.181L99.7863 14.1338V0.423584H95.0156Z" fill="black"/>
<path d="M70.6939 17.723C70.0028 18.8599 68.5761 19.7071 66.971 19.7071C64.764 19.7071 62.9806 17.9236 62.9806 15.7166C62.9806 13.5096 64.764 11.7262 66.971 11.7262C68.5761 11.7262 70.0028 12.6179 70.6939 13.7771V17.723ZM70.6939 7.69115V9.58605C69.9137 8.27076 67.9742 7.35675 65.9455 7.35675C61.7544 7.35675 58.4551 11.0574 58.4551 15.6943C58.4551 20.3313 61.7544 24.0765 65.9455 24.0765C67.9742 24.0765 69.9137 23.1625 70.6939 21.8472V23.7421H75.4646V7.69115H70.6939Z" fill="black"/>
<path d="M6.8021 17.7006C6.8021 19.328 5.48681 20.6433 3.85942 20.6433C2.23203 20.6433 0.916748 19.328 0.916748 17.7006C0.916748 16.0732 2.23203 14.7579 3.85942 14.7579H6.8021V17.7006Z" fill="#E01E5A"/>
<path d="M8.27344 17.7006C8.27344 16.0732 9.58872 14.7579 11.2161 14.7579C12.8435 14.7579 14.1588 16.0732 14.1588 17.7006V25.0573C14.1588 26.6847 12.8435 28 11.2161 28C9.58872 28 8.27344 26.6847 8.27344 25.0573V17.7006Z" fill="#E01E5A"/>
<path d="M11.2161 5.88535C9.58872 5.88535 8.27344 4.57007 8.27344 2.94268C8.27344 1.31529 9.58872 0 11.2161 0C12.8435 0 14.1588 1.31529 14.1588 2.94268V5.88535H11.2161Z" fill="#36C5F0"/>
<path d="M11.2162 7.37897C12.8436 7.37897 14.1589 8.69426 14.1589 10.3216C14.1589 11.949 12.8436 13.2643 11.2162 13.2643H3.83721C2.20982 13.2643 0.894531 11.949 0.894531 10.3216C0.894531 8.69426 2.20982 7.37897 3.83721 7.37897H11.2162Z" fill="#36C5F0"/>
<path d="M23.0093 10.3216C23.0093 8.69426 24.3246 7.37897 25.952 7.37897C27.5793 7.37897 28.8946 8.69426 28.8946 10.3216C28.8946 11.949 27.5793 13.2643 25.952 13.2643H23.0093V10.3216Z" fill="#2EB67D"/>
<path d="M21.5379 10.3217C21.5379 11.949 20.2227 13.2643 18.5953 13.2643C16.9679 13.2643 15.6526 11.949 15.6526 10.3217V2.94268C15.6526 1.31529 16.9679 0 18.5953 0C20.2227 0 21.5379 1.31529 21.5379 2.94268V10.3217Z" fill="#2EB67D"/>
<path d="M18.5953 22.1147C20.2227 22.1147 21.5379 23.43 21.5379 25.0574C21.5379 26.6847 20.2227 28 18.5953 28C16.9679 28 15.6526 26.6847 15.6526 25.0574V22.1147H18.5953Z" fill="#ECB22E"/>
<path d="M18.5953 20.6433C16.9679 20.6433 15.6526 19.328 15.6526 17.7006C15.6526 16.0732 16.9679 14.7579 18.5953 14.7579H25.9742C27.6016 14.7579 28.9169 16.0732 28.9169 17.7006C28.9169 19.328 27.6016 20.6433 25.9742 20.6433H18.5953Z" fill="#ECB22E"/>
</svg>
