<svg width="124" height="40" viewBox="0 0 124 40" fill="none" xmlns="http://www.w3.org/2000/svg">
<path d="M16.6638 18.4375V14.1406H30.8826C31.0456 15.0165 31.1241 15.906 31.1169 16.7969C31.1169 19.9219 30.2576 23.9062 27.4451 26.6406C24.7107 29.5312 21.2732 31.0156 16.5857 31.0156C8.07007 31.0156 0.882568 24.0625 0.882568 15.5469C0.882568 7.03125 8.07007 0 16.5857 0C21.3513 0 24.7107 1.875 27.2888 4.29688L24.2419 7.26562C22.6549 5.75097 20.6543 4.74088 18.4932 4.36307C16.3321 3.98526 14.1075 4.25669 12.1007 5.14305C10.0939 6.02941 8.39487 7.49089 7.21854 9.34272C6.04221 11.1946 5.44136 13.3536 5.49194 15.5469C5.49194 21.7969 10.4138 26.7969 16.5857 26.7969C20.6482 26.7969 22.9919 25.1562 24.4763 23.6719C25.6482 22.5 26.4294 20.7812 26.7419 18.4375H16.6638Z" fill="#4285F4"/>
<path d="M52.7576 21.0156C52.7576 26.7969 48.2263 31.0156 42.6794 31.0156C37.1326 31.0156 32.6794 26.7969 32.6794 21.0156C32.6794 15.2344 37.2107 11.0156 42.6794 11.0156C48.1482 11.0156 52.7576 15.2344 52.7576 21.0156ZM48.3044 21.0156C48.3044 17.4219 45.7263 15 42.6794 15C39.6326 15 37.0544 17.4219 37.0544 21.0156C37.0544 24.6094 39.7107 27.1094 42.6794 27.1094C45.6482 27.1094 48.3044 24.6094 48.3044 21.0156Z" fill="#EA4335"/>
<path d="M74.6326 21.0156C74.6326 26.7969 70.1013 31.0156 64.5544 31.0156C59.0076 31.0156 54.5544 26.7969 54.5544 21.0156C54.5544 15.2344 59.0857 11.0156 64.5544 11.0156C70.0232 11.0156 74.6326 15.2344 74.6326 21.0156ZM70.1794 21.0156C70.1794 17.4219 67.6013 15 64.5544 15C61.5076 15 58.9294 17.4219 58.9294 21.0156C58.9294 24.6094 61.5857 27.1094 64.5544 27.1094C67.5232 27.1094 70.1794 24.6094 70.1794 21.0156Z" fill="#FBBC04"/>
<path d="M95.5701 11.6406V29.6094C95.5701 36.9531 91.1951 40 86.0388 40C81.1951 40 78.3044 36.7188 77.2107 34.0625L81.0388 32.5C81.7419 34.1406 83.3826 36.0938 86.0388 36.0938C89.3982 36.0938 91.4294 33.9844 91.4294 30.2344V28.75H91.2732C90.6084 29.4946 89.7877 30.0836 88.8696 30.4751C87.9514 30.8667 86.9582 31.0512 85.9607 31.0156C81.0388 31.0156 76.4294 26.6406 76.4294 21.0938C76.4294 15.4688 81.0388 11.0156 85.9607 11.0156C88.3826 11.0156 90.2576 12.1094 91.2732 13.2812H91.4294V11.6406H95.5701ZM91.7419 21.0938C91.7419 17.5781 89.3982 15 86.3513 15C83.3826 15 80.8044 17.5781 80.8044 21.0938C80.8044 24.5312 83.3826 27.1094 86.3513 27.1094C89.3982 27.1094 91.7419 24.5312 91.7419 21.0938Z" fill="#4285F4"/>
<path d="M98.6169 1.17188H102.992V30.4688H98.6169V1.17188Z" fill="#34A853"/>
<path d="M119.945 24.2969L123.383 26.6406C122.289 28.2031 119.633 31.0156 115.023 31.0156C109.32 31.0156 105.101 26.6406 105.101 21.0156C105.101 15.0781 109.398 11.0156 114.554 11.0156C119.711 11.0156 122.289 15.1562 123.07 17.4219L123.539 18.5156L110.179 24.0625C111.195 26.0938 112.758 27.1094 115.023 27.1094C117.289 27.1094 118.773 26.0156 119.945 24.2969ZM109.476 20.7031L118.383 17.0312C117.914 15.7812 116.429 14.9219 114.711 14.9219C112.445 14.9219 109.32 16.875 109.476 20.7031Z" fill="#EA4335"/>
</svg>
