<svg width="120" height="61" viewBox="0 0 120 61" fill="none" xmlns="http://www.w3.org/2000/svg">
<g clip-path="url(#clip0_912_144)">
<path d="M0 0.00463867H5.09036C8.65623 0.00463867 10.0515 1.89056 10.0515 4.63059C10.0515 6.43977 9.07017 8.17021 7.20848 8.63664V8.68712C9.48208 9.12731 10.6451 10.884 10.6451 13.2868C10.6451 16.5175 8.55124 18.4539 5.06411 18.4539H0V0.00463867ZM1.65371 8.11973H4.26451C7.10752 8.11973 8.3998 6.9062 8.3998 4.76183C8.3998 2.30651 7.13377 1.40191 4.54922 1.40191H1.65371V8.11973ZM1.65371 17.0607H4.72892C7.59818 17.0607 8.99142 15.7684 8.99142 13.2868C8.99142 10.8052 7.59616 9.51499 4.72892 9.51499H1.65371V17.0607Z" fill="white"/>
<path d="M12.9207 0.00463867H18.4249C21.5002 0.00463867 23.2064 1.76335 23.2064 4.63059C23.2064 6.85371 22.328 8.8426 19.8727 9.30701V9.35951C22.1725 9.56547 22.9479 10.884 23.0246 13.727L23.0771 15.7421C23.1034 16.7497 23.2064 17.731 23.8525 18.4559H21.9141C21.5264 17.8098 21.4497 16.8547 21.4234 15.8714L21.3709 14.3206C21.268 11.0637 20.6743 10.0319 17.7021 10.0319H14.5764V18.4559H12.9227V0.00463867H12.9207ZM14.5744 8.63462H17.4174C20.0282 8.63462 21.5527 7.44533 21.5527 5.01625C21.5527 2.7689 20.5976 1.39989 17.5991 1.39989H14.5764V8.63664L14.5744 8.63462Z" fill="white"/>
<path d="M29.8233 0.00463867H31.891L37.3427 18.4539H35.5861L34.0878 13.0788H27.6285L26.1302 18.4539H24.3735L29.8233 0.00463867ZM33.7244 11.6836L30.8814 1.29692H30.8289L27.9859 11.6836H33.7223H33.7244Z" fill="white"/>
<path d="M38.7642 0.00463867H40.9873L48.0423 16.0773H48.0948V0.00463867H49.7485V18.4559H47.5254L40.4704 2.38324H40.4179V18.4559H38.7642V0.00463867Z" fill="white"/>
<path d="M52.6421 0.00463867H57.0863C62.4614 0.00463867 63.7779 3.20908 63.7779 9.22826C63.7779 15.2474 62.4594 18.4539 57.0863 18.4539H52.6421V0.00463867ZM54.2958 17.0587H56.9833C60.5997 17.0587 62.1262 15.2495 62.1262 9.25451C62.1262 3.25956 60.6017 1.39989 56.9833 1.39989H54.2958V17.0607V17.0587Z" fill="white"/>
<path d="M0 61.0001V21.3857H7.9899V60.9981H0V61.0001Z" fill="white"/>
<path d="M23.1338 21.3857L32.7875 48.5155H32.8986V21.3857H40.2221V60.9981H31.1237L21.3589 33.2585H21.2479V60.9981H13.9243V21.3857H23.1338Z" fill="white"/>
<path d="M46.1585 21.3857H59.2509C70.3463 21.3857 72.3433 28.9859 72.3433 40.6366C72.3433 54.674 69.3468 60.9981 58.7501 60.9981H46.1565V21.3857H46.1585ZM54.1484 55.1182H57.7002C63.2489 55.1182 64.3574 51.623 64.3574 40.8608C64.3574 31.8734 63.6366 27.2676 57.5326 27.2676H54.1484V55.1182Z" fill="white"/>
<path d="M78.001 61.0001V21.3857H85.9909V60.9981H78.001V61.0001Z" fill="white"/>
<path d="M99.6386 21.3857H109.514L120 60.9981H111.679L109.848 52.6205H99.3075L97.4761 60.9981H89.155L99.6406 21.3857H99.6386ZM100.693 46.0743H108.46L104.632 28.2651H104.521L100.693 46.0743Z" fill="white"/>
<path fill-rule="evenodd" clip-rule="evenodd" d="M109.387 0.00463867H114.605L119.822 9.23028L114.605 18.4559H109.387L114.605 9.23028L109.387 0.00463867Z" fill="white"/>
<path fill-rule="evenodd" clip-rule="evenodd" d="M106.256 9.23028L101.04 18.4559H106.256L111.473 9.23028L106.256 0.00463867H101.04L106.256 9.23028Z" fill="white"/>
<path fill-rule="evenodd" clip-rule="evenodd" d="M89.5608 9.23028L84.3433 18.4559H89.5608L94.7784 9.23028L89.5608 0.00463867H84.3433L89.5608 9.23028Z" fill="white"/>
<path fill-rule="evenodd" clip-rule="evenodd" d="M97.9082 9.23028L92.6907 18.4559H97.9082L103.126 9.23028L97.9082 0.00463867H92.6907L97.9082 9.23028Z" fill="white"/>
<path fill-rule="evenodd" clip-rule="evenodd" d="M81.2137 9.23028L75.9961 18.4559H81.2137L86.4312 9.23028L81.2137 0.00463867H75.9961L81.2137 9.23028Z" fill="white"/>
<path fill-rule="evenodd" clip-rule="evenodd" d="M72.8643 9.23028L67.6467 18.4559H72.8643L78.0819 9.23028L72.8643 0.00463867H67.6467L72.8643 9.23028Z" fill="white"/>
</g>
<defs>
<clipPath id="clip0_912_144">
<rect width="120" height="60.9955" fill="white" transform="translate(0 0.00463867)"/>
</clipPath>
</defs>
</svg>
