<svg width="120" height="62" viewBox="0 0 120 62" fill="none" xmlns="http://www.w3.org/2000/svg">
<g clip-path="url(#clip0_808_921)">
<path d="M0 0.502197H5.09036C8.65623 0.502197 10.0515 2.38811 10.0515 5.12814C10.0515 6.93733 9.07017 8.66777 7.20848 9.1342V9.18468C9.48208 9.62486 10.6451 11.3816 10.6451 13.7844C10.6451 17.0151 8.55124 18.9515 5.06411 18.9515H0V0.502197ZM1.65371 8.61729H4.26451C7.10752 8.61729 8.3998 7.40376 8.3998 5.25939C8.3998 2.80407 7.13377 1.89947 4.54922 1.89947H1.65371V8.61729ZM1.65371 17.5582H4.72892C7.59818 17.5582 8.99142 16.266 8.99142 13.7844C8.99142 11.3028 7.59616 10.0125 4.72892 10.0125H1.65371V17.5582Z" fill="#1D1D1B"/>
<path d="M12.9207 0.502197H18.4249C21.5002 0.502197 23.2064 2.26091 23.2064 5.12814C23.2064 7.35126 22.328 9.34016 19.8727 9.80457V9.85707C22.1725 10.063 22.9479 11.3816 23.0246 14.2246L23.0771 16.2397C23.1034 17.2473 23.2064 18.2286 23.8525 18.9535H21.9141C21.5264 18.3073 21.4497 17.3523 21.4234 16.3689L21.3709 14.8182C21.268 11.5613 20.6743 10.5295 17.7021 10.5295H14.5764V18.9535H12.9227V0.502197H12.9207ZM14.5744 9.13218H17.4174C20.0282 9.13218 21.5527 7.94288 21.5527 5.51381C21.5527 3.26646 20.5976 1.89745 17.5991 1.89745H14.5764V9.1342L14.5744 9.13218Z" fill="#1D1D1B"/>
<path d="M29.8233 0.502197H31.891L37.3427 18.9515H35.5861L34.0878 13.5764H27.6285L26.1302 18.9515H24.3735L29.8233 0.502197ZM33.7244 12.1811L30.8814 1.79447H30.8289L27.9859 12.1811H33.7223H33.7244Z" fill="#1D1D1B"/>
<path d="M38.7642 0.502197H40.9873L48.0423 16.5749H48.0948V0.502197H49.7485V18.9535H47.5254L40.4704 2.88079H40.4179V18.9535H38.7642V0.502197Z" fill="#1D1D1B"/>
<path d="M52.6421 0.502197H57.0863C62.4614 0.502197 63.7779 3.70664 63.7779 9.72582C63.7779 15.745 62.4594 18.9515 57.0863 18.9515H52.6421V0.502197ZM54.2958 17.5562H56.9833C60.5997 17.5562 62.1262 15.747 62.1262 9.75207C62.1262 3.75712 60.6017 1.89745 56.9833 1.89745H54.2958V17.5582V17.5562Z" fill="#1D1D1B"/>
<path d="M0 61.4976V21.8833H7.9899V61.4956H0V61.4976Z" fill="#1D1D1B"/>
<path d="M23.1338 21.8833L32.7875 49.013H32.8986V21.8833H40.2221V61.4956H31.1237L21.3589 33.7561H21.2479V61.4956H13.9243V21.8833H23.1338Z" fill="#1D1D1B"/>
<path d="M46.1585 21.8833H59.2509C70.3463 21.8833 72.3433 29.4835 72.3433 41.1342C72.3433 55.1715 69.3468 61.4956 58.7501 61.4956H46.1565V21.8833H46.1585ZM54.1484 55.6158H57.7002C63.2489 55.6158 64.3574 52.1206 64.3574 41.3583C64.3574 32.3709 63.6366 27.7652 57.5326 27.7652H54.1484V55.6158Z" fill="#1D1D1B"/>
<path d="M78.001 61.4976V21.8833H85.9909V61.4956H78.001V61.4976Z" fill="#1D1D1B"/>
<path d="M99.6386 21.8833H109.514L120 61.4956H111.679L109.848 53.118H99.3075L97.4761 61.4956H89.155L99.6406 21.8833H99.6386ZM100.693 46.5718H108.46L104.632 28.7627H104.521L100.693 46.5718Z" fill="#1D1D1B"/>
<path fill-rule="evenodd" clip-rule="evenodd" d="M109.387 0.502197H114.605L119.822 9.72784L114.605 18.9535H109.387L114.605 9.72784L109.387 0.502197Z" fill="#1D1D1B"/>
<path fill-rule="evenodd" clip-rule="evenodd" d="M106.256 9.72784L101.04 18.9535H106.256L111.473 9.72784L106.256 0.502197H101.04L106.256 9.72784Z" fill="#1D1D1B"/>
<path fill-rule="evenodd" clip-rule="evenodd" d="M89.5608 9.72784L84.3433 18.9535H89.5608L94.7784 9.72784L89.5608 0.502197H84.3433L89.5608 9.72784Z" fill="#1D1D1B"/>
<path fill-rule="evenodd" clip-rule="evenodd" d="M97.9082 9.72784L92.6907 18.9535H97.9082L103.126 9.72784L97.9082 0.502197H92.6907L97.9082 9.72784Z" fill="#1D1D1B"/>
<path fill-rule="evenodd" clip-rule="evenodd" d="M81.2137 9.72784L75.9961 18.9535H81.2137L86.4312 9.72784L81.2137 0.502197H75.9961L81.2137 9.72784Z" fill="#1D1D1B"/>
<path fill-rule="evenodd" clip-rule="evenodd" d="M72.8643 9.72784L67.6467 18.9535H72.8643L78.0819 9.72784L72.8643 0.502197H67.6467L72.8643 9.72784Z" fill="#1D1D1B"/>
</g>
<defs>
<clipPath id="clip0_808_921">
<rect width="120" height="60.9955" fill="white" transform="translate(0 0.502197)"/>
</clipPath>
</defs>
</svg>
