<svg width="447" height="232" viewBox="0 0 447 232" fill="none" xmlns="http://www.w3.org/2000/svg">
<path fill-rule="evenodd" clip-rule="evenodd" d="M28.0409 4.58368H13.5925C8.55755 4.58368 5.40088 8.14868 5.40088 13.1937V26.807C5.40088 31.852 8.54255 35.417 13.5925 35.417H28.0392C33.0909 35.417 36.2342 31.852 36.2342 26.807V13.1937C36.2342 8.14868 33.0909 4.58368 28.0409 4.58368Z" fill="#00BE82"/>
<path d="M14.8833 20.0003L18.84 23.9553L26.75 16.0453" stroke="white" stroke-width="1.5" stroke-linecap="round" stroke-linejoin="round"/>
<path d="M63.9449 29.24C62.2489 29.24 60.8089 28.728 59.6249 27.704C58.4569 26.664 57.8729 25.368 57.8729 23.816H59.9609C60.0249 24.824 60.4329 25.648 61.1849 26.288C61.9369 26.912 62.8569 27.224 63.9449 27.224C64.9369 27.224 65.7609 26.952 66.4169 26.408C67.0729 25.864 67.4009 25.112 67.4009 24.152C67.4009 23.128 67.0649 22.36 66.3929 21.848C65.7369 21.336 64.8329 21.08 63.6809 21.08H62.4089V19.184H63.7769C64.6889 19.184 65.4329 18.928 66.0089 18.416C66.6009 17.904 66.9049 17.24 66.9209 16.424C66.9209 15.624 66.6249 14.968 66.0329 14.456C65.4569 13.944 64.7289 13.688 63.8489 13.688C62.8409 13.688 61.9929 13.984 61.3049 14.576C60.6169 15.168 60.2729 15.992 60.2729 17.048H58.1609C58.1609 15.416 58.7049 14.112 59.7929 13.136C60.8809 12.16 62.2329 11.672 63.8489 11.672C65.3369 11.672 66.5689 12.104 67.5449 12.968C68.5369 13.816 69.0329 14.944 69.0329 16.352C69.0169 17.168 68.7929 17.904 68.3609 18.56C67.9449 19.216 67.4009 19.72 66.7289 20.072C67.5929 20.424 68.2729 20.968 68.7689 21.704C69.2649 22.424 69.5129 23.264 69.5129 24.224C69.5129 25.712 68.9929 26.92 67.9529 27.848C66.9129 28.776 65.5769 29.24 63.9449 29.24ZM78.2028 29.24C76.4268 29.24 74.9788 28.648 73.8588 27.464C72.7388 26.264 72.1788 24.72 72.1788 22.832V18.08C72.1788 16.192 72.7388 14.656 73.8588 13.472C74.9948 12.272 76.4428 11.672 78.2028 11.672C79.9628 11.672 81.4108 12.272 82.5468 13.472C83.6828 14.672 84.2508 16.208 84.2508 18.08V22.832C84.2508 24.72 83.6828 26.264 82.5468 27.464C81.4108 28.648 79.9628 29.24 78.2028 29.24ZM78.2028 27.224C79.3868 27.224 80.3468 26.832 81.0828 26.048C81.8188 25.264 82.1868 24.192 82.1868 22.832V18.08C82.1868 16.72 81.8188 15.648 81.0828 14.864C80.3468 14.08 79.3868 13.688 78.2028 13.688C77.0348 13.688 76.0828 14.08 75.3468 14.864C74.6108 15.648 74.2428 16.72 74.2428 18.08V22.832C74.2428 24.192 74.6108 25.264 75.3468 26.048C76.0828 26.832 77.0348 27.224 78.2028 27.224ZM97.049 29.24C95.945 29.24 94.977 29.008 94.145 28.544C93.313 28.064 92.713 27.368 92.345 26.456L94.025 25.52C94.249 26.112 94.641 26.576 95.201 26.912C95.761 27.248 96.385 27.416 97.073 27.416C97.665 27.416 98.161 27.272 98.561 26.984C98.961 26.696 99.161 26.304 99.161 25.808C99.161 25.376 99.001 25.016 98.681 24.728C98.377 24.44 97.841 24.176 97.073 23.936L95.873 23.552C93.873 22.976 92.873 21.808 92.873 20.048C92.873 19.056 93.265 18.264 94.049 17.672C94.849 17.064 95.833 16.76 97.001 16.76C98.825 16.76 100.145 17.456 100.961 18.848L99.425 19.904C98.769 18.992 97.937 18.536 96.929 18.536C96.385 18.536 95.913 18.672 95.513 18.944C95.129 19.2 94.937 19.544 94.937 19.976C94.937 20.376 95.057 20.72 95.297 21.008C95.553 21.28 96.001 21.512 96.641 21.704L97.961 22.112C100.137 22.784 101.225 23.96 101.225 25.64C101.225 26.76 100.833 27.64 100.049 28.28C99.281 28.92 98.281 29.24 97.049 29.24ZM109.51 29.24C107.67 29.24 106.174 28.648 105.022 27.464C103.87 26.28 103.294 24.792 103.294 23C103.294 21.224 103.878 19.744 105.046 18.56C106.214 17.36 107.71 16.76 109.534 16.76C111.15 16.76 112.502 17.304 113.59 18.392C114.694 19.464 115.246 20.928 115.246 22.784C115.246 23.024 115.238 23.232 115.222 23.408H105.382C105.414 24.528 105.814 25.464 106.582 26.216C107.366 26.968 108.35 27.344 109.534 27.344C111.214 27.344 112.462 26.648 113.278 25.256L114.91 26.384C113.742 28.288 111.942 29.24 109.51 29.24ZM105.526 21.728H113.134C112.974 20.768 112.55 20.008 111.862 19.448C111.19 18.872 110.39 18.584 109.462 18.584C108.518 18.584 107.67 18.872 106.918 19.448C106.182 20.008 105.718 20.768 105.526 21.728ZM123.527 29.24C121.719 29.24 120.215 28.64 119.015 27.44C117.831 26.24 117.239 24.76 117.239 23C117.239 21.24 117.831 19.76 119.015 18.56C120.215 17.36 121.719 16.76 123.527 16.76C124.743 16.76 125.831 17.048 126.791 17.624C127.767 18.2 128.527 18.984 129.071 19.976L127.271 20.984C126.919 20.28 126.415 19.72 125.759 19.304C125.119 18.888 124.375 18.68 123.527 18.68C122.295 18.68 121.287 19.096 120.503 19.928C119.719 20.76 119.327 21.784 119.327 23C119.327 24.216 119.719 25.24 120.503 26.072C121.287 26.904 122.295 27.32 123.527 27.32C124.375 27.32 125.119 27.112 125.759 26.696C126.415 26.28 126.919 25.72 127.271 25.016L129.071 26.024C128.527 27.016 127.767 27.8 126.791 28.376C125.831 28.952 124.743 29.24 123.527 29.24ZM137.073 29.24C135.265 29.24 133.761 28.64 132.561 27.44C131.377 26.224 130.785 24.744 130.785 23C130.785 21.256 131.377 19.784 132.561 18.584C133.761 17.368 135.265 16.76 137.073 16.76C138.865 16.76 140.353 17.368 141.537 18.584C142.737 19.784 143.337 21.256 143.337 23C143.337 24.744 142.737 26.224 141.537 27.44C140.353 28.64 138.865 29.24 137.073 29.24ZM134.049 26.072C134.833 26.904 135.841 27.32 137.073 27.32C138.305 27.32 139.305 26.904 140.073 26.072C140.841 25.24 141.225 24.216 141.225 23C141.225 21.784 140.841 20.76 140.073 19.928C139.305 19.096 138.305 18.68 137.073 18.68C135.841 18.68 134.833 19.096 134.049 19.928C133.281 20.76 132.897 21.784 132.897 23C132.897 24.216 133.281 25.24 134.049 26.072ZM146.3 29V17H148.364V18.848C149.18 17.456 150.452 16.76 152.18 16.76C153.54 16.76 154.636 17.2 155.468 18.08C156.3 18.96 156.716 20.136 156.716 21.608V29H154.676V21.92C154.676 20.912 154.42 20.12 153.908 19.544C153.396 18.952 152.708 18.656 151.844 18.656C150.852 18.656 150.02 19.048 149.348 19.832C148.692 20.616 148.364 21.688 148.364 23.048V29H146.3ZM165.377 29.24C163.713 29.24 162.313 28.632 161.177 27.416C160.057 26.2 159.497 24.728 159.497 23C159.497 21.272 160.057 19.8 161.177 18.584C162.313 17.368 163.713 16.76 165.377 16.76C166.257 16.76 167.073 16.96 167.825 17.36C168.593 17.744 169.185 18.24 169.601 18.848V11H171.665V29H169.601V27.152C169.185 27.76 168.593 28.264 167.825 28.664C167.073 29.048 166.257 29.24 165.377 29.24ZM165.689 27.344C166.873 27.344 167.849 26.928 168.617 26.096C169.385 25.264 169.769 24.232 169.769 23C169.769 21.768 169.385 20.736 168.617 19.904C167.849 19.072 166.873 18.656 165.689 18.656C164.489 18.656 163.505 19.072 162.737 19.904C161.969 20.736 161.585 21.768 161.585 23C161.585 24.232 161.969 25.264 162.737 26.096C163.505 26.928 164.489 27.344 165.689 27.344ZM186.283 29.24C184.619 29.24 183.219 28.632 182.083 27.416C180.963 26.2 180.403 24.728 180.403 23C180.403 21.272 180.963 19.8 182.083 18.584C183.219 17.368 184.619 16.76 186.283 16.76C187.163 16.76 187.979 16.96 188.731 17.36C189.499 17.744 190.091 18.24 190.507 18.848V17H192.571V29H190.507V27.152C190.091 27.76 189.499 28.264 188.731 28.664C187.979 29.048 187.163 29.24 186.283 29.24ZM186.595 27.344C187.779 27.344 188.755 26.928 189.523 26.096C190.291 25.264 190.675 24.232 190.675 23C190.675 21.768 190.291 20.736 189.523 19.904C188.755 19.072 187.779 18.656 186.595 18.656C185.395 18.656 184.411 19.072 183.643 19.904C182.875 20.736 182.491 21.768 182.491 23C182.491 24.232 182.875 25.264 183.643 26.096C184.411 26.928 185.395 27.344 186.595 27.344ZM200.2 29L194.656 17H196.96L201.064 26.096L205.168 17H207.472L201.928 29H200.2ZM214.58 29.24C212.74 29.24 211.244 28.648 210.092 27.464C208.94 26.28 208.364 24.792 208.364 23C208.364 21.224 208.948 19.744 210.116 18.56C211.284 17.36 212.78 16.76 214.604 16.76C216.22 16.76 217.572 17.304 218.66 18.392C219.764 19.464 220.316 20.928 220.316 22.784C220.316 23.024 220.308 23.232 220.292 23.408H210.452C210.484 24.528 210.884 25.464 211.652 26.216C212.436 26.968 213.42 27.344 214.604 27.344C216.284 27.344 217.532 26.648 218.348 25.256L219.98 26.384C218.812 28.288 217.012 29.24 214.58 29.24ZM210.596 21.728H218.204C218.044 20.768 217.62 20.008 216.932 19.448C216.26 18.872 215.46 18.584 214.532 18.584C213.588 18.584 212.74 18.872 211.988 19.448C211.252 20.008 210.788 20.768 210.596 21.728ZM223.245 29V17H225.309V19.328C225.533 18.592 225.965 18 226.605 17.552C227.261 17.104 227.949 16.88 228.669 16.88C229.021 16.88 229.333 16.912 229.605 16.976V19.112C229.317 18.984 228.941 18.92 228.477 18.92C227.645 18.92 226.909 19.28 226.269 20C225.629 20.72 225.309 21.736 225.309 23.048V29H223.245ZM236.58 29.24C234.916 29.24 233.516 28.632 232.38 27.416C231.26 26.2 230.7 24.728 230.7 23C230.7 21.272 231.26 19.8 232.38 18.584C233.516 17.368 234.916 16.76 236.58 16.76C237.46 16.76 238.276 16.96 239.028 17.36C239.796 17.744 240.388 18.24 240.804 18.848V17H242.868V29H240.804V27.152C240.388 27.76 239.796 28.264 239.028 28.664C238.276 29.048 237.46 29.24 236.58 29.24ZM236.892 27.344C238.076 27.344 239.052 26.928 239.82 26.096C240.588 25.264 240.972 24.232 240.972 23C240.972 21.768 240.588 20.736 239.82 19.904C239.052 19.072 238.076 18.656 236.892 18.656C235.692 18.656 234.708 19.072 233.94 19.904C233.172 20.736 232.788 21.768 232.788 23C232.788 24.232 233.172 25.264 233.94 26.096C234.708 26.928 235.692 27.344 236.892 27.344ZM249.057 25.88C249.809 26.664 250.785 27.056 251.985 27.056C253.185 27.056 254.161 26.664 254.913 25.88C255.665 25.08 256.041 24.072 256.041 22.856C256.041 21.64 255.657 20.64 254.889 19.856C254.137 19.056 253.169 18.656 251.985 18.656C250.801 18.656 249.825 19.056 249.057 19.856C248.305 20.64 247.929 21.64 247.929 22.856C247.929 24.072 248.305 25.08 249.057 25.88ZM251.865 34.256C250.633 34.256 249.521 34.024 248.529 33.56C247.537 33.112 246.769 32.528 246.225 31.808L247.665 30.368C248.721 31.712 250.121 32.384 251.865 32.384C252.985 32.384 253.929 32.032 254.697 31.328C255.481 30.624 255.873 29.592 255.873 28.232V26.864C255.441 27.504 254.857 28.016 254.121 28.4C253.385 28.784 252.577 28.976 251.697 28.976C250.017 28.976 248.617 28.392 247.497 27.224C246.377 26.04 245.817 24.584 245.817 22.856C245.817 21.144 246.377 19.704 247.497 18.536C248.633 17.352 250.033 16.76 251.697 16.76C252.577 16.76 253.385 16.952 254.121 17.336C254.857 17.72 255.441 18.224 255.873 18.848V17H257.937V28.304C257.937 30.24 257.369 31.712 256.233 32.72C255.113 33.744 253.657 34.256 251.865 34.256ZM267.103 29.24C265.263 29.24 263.767 28.648 262.615 27.464C261.463 26.28 260.887 24.792 260.887 23C260.887 21.224 261.471 19.744 262.639 18.56C263.807 17.36 265.303 16.76 267.127 16.76C268.743 16.76 270.095 17.304 271.183 18.392C272.287 19.464 272.839 20.928 272.839 22.784C272.839 23.024 272.831 23.232 272.815 23.408H262.975C263.007 24.528 263.407 25.464 264.175 26.216C264.959 26.968 265.943 27.344 267.127 27.344C268.807 27.344 270.055 26.648 270.871 25.256L272.503 26.384C271.335 28.288 269.535 29.24 267.103 29.24ZM263.119 21.728H270.727C270.567 20.768 270.143 20.008 269.455 19.448C268.783 18.872 267.983 18.584 267.055 18.584C266.111 18.584 265.263 18.872 264.511 19.448C263.775 20.008 263.311 20.768 263.119 21.728ZM281.558 29V17H283.622V19.328C283.846 18.592 284.278 18 284.918 17.552C285.574 17.104 286.262 16.88 286.982 16.88C287.334 16.88 287.646 16.912 287.918 16.976V19.112C287.63 18.984 287.254 18.92 286.79 18.92C285.958 18.92 285.222 19.28 284.582 20C283.942 20.72 283.622 21.736 283.622 23.048V29H281.558ZM295.205 29.24C293.365 29.24 291.869 28.648 290.717 27.464C289.565 26.28 288.989 24.792 288.989 23C288.989 21.224 289.573 19.744 290.741 18.56C291.909 17.36 293.405 16.76 295.229 16.76C296.845 16.76 298.197 17.304 299.285 18.392C300.389 19.464 300.941 20.928 300.941 22.784C300.941 23.024 300.933 23.232 300.917 23.408H291.077C291.109 24.528 291.509 25.464 292.277 26.216C293.061 26.968 294.045 27.344 295.229 27.344C296.909 27.344 298.157 26.648 298.973 25.256L300.605 26.384C299.437 28.288 297.637 29.24 295.205 29.24ZM291.221 21.728H298.829C298.669 20.768 298.245 20.008 297.557 19.448C296.885 18.872 296.085 18.584 295.157 18.584C294.213 18.584 293.365 18.872 292.613 19.448C291.877 20.008 291.413 20.768 291.221 21.728ZM307.494 29.24C306.39 29.24 305.422 29.008 304.59 28.544C303.758 28.064 303.158 27.368 302.79 26.456L304.47 25.52C304.694 26.112 305.086 26.576 305.646 26.912C306.206 27.248 306.83 27.416 307.518 27.416C308.11 27.416 308.606 27.272 309.006 26.984C309.406 26.696 309.606 26.304 309.606 25.808C309.606 25.376 309.446 25.016 309.126 24.728C308.822 24.44 308.286 24.176 307.518 23.936L306.318 23.552C304.318 22.976 303.318 21.808 303.318 20.048C303.318 19.056 303.71 18.264 304.494 17.672C305.294 17.064 306.278 16.76 307.446 16.76C309.27 16.76 310.59 17.456 311.406 18.848L309.87 19.904C309.214 18.992 308.382 18.536 307.374 18.536C306.83 18.536 306.358 18.672 305.958 18.944C305.574 19.2 305.382 19.544 305.382 19.976C305.382 20.376 305.502 20.72 305.742 21.008C305.998 21.28 306.446 21.512 307.086 21.704L308.406 22.112C310.582 22.784 311.67 23.96 311.67 25.64C311.67 26.76 311.278 27.64 310.494 28.28C309.726 28.92 308.726 29.24 307.494 29.24ZM316.739 34.016H314.675V17H316.739V18.848C317.155 18.24 317.739 17.744 318.491 17.36C319.259 16.96 320.083 16.76 320.963 16.76C322.627 16.76 324.019 17.368 325.139 18.584C326.275 19.8 326.843 21.272 326.843 23C326.843 24.728 326.275 26.2 325.139 27.416C324.019 28.632 322.627 29.24 320.963 29.24C320.083 29.24 319.259 29.048 318.491 28.664C317.739 28.264 317.155 27.76 316.739 27.152V34.016ZM317.723 26.096C318.491 26.928 319.467 27.344 320.651 27.344C321.835 27.344 322.811 26.928 323.579 26.096C324.347 25.264 324.731 24.232 324.731 23C324.731 21.768 324.347 20.736 323.579 19.904C322.811 19.072 321.835 18.656 320.651 18.656C319.467 18.656 318.491 19.072 317.723 19.904C316.955 20.736 316.571 21.768 316.571 23C316.571 24.232 316.955 25.264 317.723 26.096ZM335.144 29.24C333.336 29.24 331.832 28.64 330.632 27.44C329.448 26.224 328.856 24.744 328.856 23C328.856 21.256 329.448 19.784 330.632 18.584C331.832 17.368 333.336 16.76 335.144 16.76C336.936 16.76 338.424 17.368 339.608 18.584C340.808 19.784 341.408 21.256 341.408 23C341.408 24.744 340.808 26.224 339.608 27.44C338.424 28.64 336.936 29.24 335.144 29.24ZM332.12 26.072C332.904 26.904 333.912 27.32 335.144 27.32C336.376 27.32 337.376 26.904 338.144 26.072C338.912 25.24 339.296 24.216 339.296 23C339.296 21.784 338.912 20.76 338.144 19.928C337.376 19.096 336.376 18.68 335.144 18.68C333.912 18.68 332.904 19.096 332.12 19.928C331.352 20.76 330.968 21.784 330.968 23C330.968 24.216 331.352 25.24 332.12 26.072ZM344.37 29V17H346.434V18.848C347.25 17.456 348.522 16.76 350.25 16.76C351.61 16.76 352.706 17.2 353.538 18.08C354.37 18.96 354.786 20.136 354.786 21.608V29H352.746V21.92C352.746 20.912 352.49 20.12 351.978 19.544C351.466 18.952 350.778 18.656 349.914 18.656C348.922 18.656 348.09 19.048 347.418 19.832C346.762 20.616 346.434 21.688 346.434 23.048V29H344.37ZM362.127 29.24C361.023 29.24 360.055 29.008 359.223 28.544C358.391 28.064 357.791 27.368 357.423 26.456L359.103 25.52C359.327 26.112 359.719 26.576 360.279 26.912C360.839 27.248 361.463 27.416 362.151 27.416C362.743 27.416 363.239 27.272 363.639 26.984C364.039 26.696 364.239 26.304 364.239 25.808C364.239 25.376 364.079 25.016 363.759 24.728C363.455 24.44 362.919 24.176 362.151 23.936L360.951 23.552C358.951 22.976 357.951 21.808 357.951 20.048C357.951 19.056 358.343 18.264 359.127 17.672C359.927 17.064 360.911 16.76 362.079 16.76C363.903 16.76 365.223 17.456 366.039 18.848L364.503 19.904C363.847 18.992 363.015 18.536 362.007 18.536C361.463 18.536 360.991 18.672 360.591 18.944C360.207 19.2 360.015 19.544 360.015 19.976C360.015 20.376 360.135 20.72 360.375 21.008C360.631 21.28 361.079 21.512 361.719 21.704L363.039 22.112C365.215 22.784 366.303 23.96 366.303 25.64C366.303 26.76 365.911 27.64 365.127 28.28C364.359 28.92 363.359 29.24 362.127 29.24ZM374.588 29.24C372.748 29.24 371.252 28.648 370.1 27.464C368.948 26.28 368.372 24.792 368.372 23C368.372 21.224 368.956 19.744 370.124 18.56C371.292 17.36 372.788 16.76 374.612 16.76C376.228 16.76 377.58 17.304 378.668 18.392C379.772 19.464 380.324 20.928 380.324 22.784C380.324 23.024 380.316 23.232 380.3 23.408H370.46C370.492 24.528 370.892 25.464 371.66 26.216C372.444 26.968 373.428 27.344 374.612 27.344C376.292 27.344 377.54 26.648 378.356 25.256L379.988 26.384C378.82 28.288 377.02 29.24 374.588 29.24ZM370.604 21.728H378.212C378.052 20.768 377.628 20.008 376.94 19.448C376.268 18.872 375.468 18.584 374.54 18.584C373.596 18.584 372.748 18.872 371.996 19.448C371.26 20.008 370.796 20.768 370.604 21.728ZM393.3 29.12C392.196 29.12 391.308 28.808 390.636 28.184C389.964 27.56 389.628 26.648 389.628 25.448V18.896H387.084V17H389.628V13.664H391.692V17H395.148V18.896H391.692V25.184C391.692 25.936 391.852 26.464 392.172 26.768C392.492 27.072 392.996 27.224 393.684 27.224C394.292 27.224 394.78 27.144 395.148 26.984V28.832C394.572 29.024 393.956 29.12 393.3 29.12ZM399.872 13.376C399.6 13.648 399.256 13.784 398.84 13.784C398.424 13.784 398.072 13.648 397.784 13.376C397.496 13.088 397.352 12.736 397.352 12.32C397.352 11.92 397.496 11.576 397.784 11.288C398.072 11 398.424 10.856 398.84 10.856C399.256 10.856 399.6 11 399.872 11.288C400.144 11.576 400.28 11.92 400.28 12.32C400.28 12.736 400.144 13.088 399.872 13.376ZM397.784 29V17H399.848V29H397.784ZM419.217 29V21.944C419.217 20.952 419.009 20.16 418.593 19.568C418.193 18.96 417.609 18.656 416.841 18.656C415.881 18.656 415.097 19.032 414.489 19.784C413.897 20.536 413.585 21.56 413.553 22.856V29H411.489V21.944C411.489 20.936 411.281 20.136 410.865 19.544C410.465 18.952 409.889 18.656 409.137 18.656C408.145 18.656 407.345 19.056 406.737 19.856C406.129 20.64 405.825 21.704 405.825 23.048V29H403.761V17H405.825V18.848C406.593 17.456 407.801 16.76 409.449 16.76C411.273 16.76 412.505 17.616 413.145 19.328C413.465 18.544 413.977 17.92 414.681 17.456C415.385 16.992 416.185 16.76 417.081 16.76C418.377 16.76 419.401 17.2 420.153 18.08C420.905 18.96 421.281 20.144 421.281 21.632V29H419.217ZM430.275 29.24C428.435 29.24 426.939 28.648 425.787 27.464C424.635 26.28 424.059 24.792 424.059 23C424.059 21.224 424.643 19.744 425.811 18.56C426.979 17.36 428.475 16.76 430.299 16.76C431.915 16.76 433.267 17.304 434.355 18.392C435.459 19.464 436.011 20.928 436.011 22.784C436.011 23.024 436.003 23.232 435.987 23.408H426.147C426.179 24.528 426.579 25.464 427.347 26.216C428.131 26.968 429.115 27.344 430.299 27.344C431.979 27.344 433.227 26.648 434.043 25.256L435.675 26.384C434.507 28.288 432.707 29.24 430.275 29.24ZM426.291 21.728H433.899C433.739 20.768 433.315 20.008 432.627 19.448C431.955 18.872 431.155 18.584 430.227 18.584C429.283 18.584 428.435 18.872 427.683 19.448C426.947 20.008 426.483 20.768 426.291 21.728Z" fill="#3C3C3C"/>
<path fill-rule="evenodd" clip-rule="evenodd" d="M28.0409 68.5837H13.5925C8.55755 68.5837 5.40088 72.1487 5.40088 77.1937V90.807C5.40088 95.852 8.54255 99.417 13.5925 99.417H28.0392C33.0909 99.417 36.2342 95.852 36.2342 90.807V77.1937C36.2342 72.1487 33.0909 68.5837 28.0409 68.5837Z" fill="#00BE82"/>
<path d="M14.8833 84.0003L18.84 87.9553L26.75 80.0453" stroke="white" stroke-width="1.5" stroke-linecap="round" stroke-linejoin="round"/>
<path d="M70.3529 91.416C69.1209 92.664 67.5129 93.288 65.5289 93.288C63.5449 93.288 61.9369 92.664 60.7049 91.416C59.4729 90.152 58.8569 88.472 58.8569 86.376V75.96H61.0889V86.424C61.0889 87.944 61.4889 89.12 62.2889 89.952C63.0889 90.768 64.1689 91.176 65.5289 91.176C66.8889 91.176 67.9689 90.768 68.7689 89.952C69.5689 89.12 69.9689 87.944 69.9689 86.424V75.96H72.2009V86.376C72.2009 88.472 71.5849 90.152 70.3529 91.416ZM87.743 93L78.695 84.888V93H76.487V75.96H78.695V83.352L86.135 75.96H89.039L80.927 84.072L90.887 93H87.743ZM94.8445 92.472L92.3725 96.432H91.0045L92.6125 93C91.9565 92.68 91.6285 92.144 91.6285 91.392C91.6285 90.912 91.8045 90.496 92.1565 90.144C92.5085 89.776 92.9245 89.592 93.4045 89.592C93.8845 89.592 94.3005 89.776 94.6525 90.144C95.0045 90.496 95.1805 90.912 95.1805 91.392C95.1805 91.744 95.0685 92.104 94.8445 92.472ZM104.518 93V75.96H114.454V78.072H106.75V83.232H113.014V85.344H106.75V90.888H114.454V93H104.518ZM117.308 93V81H119.372V82.848C120.188 81.456 121.46 80.76 123.188 80.76C124.548 80.76 125.644 81.2 126.476 82.08C127.308 82.96 127.724 84.136 127.724 85.608V93H125.684V85.92C125.684 84.912 125.428 84.12 124.916 83.544C124.404 82.952 123.716 82.656 122.852 82.656C121.86 82.656 121.028 83.048 120.356 83.832C119.7 84.616 119.372 85.688 119.372 87.048V93H117.308ZM133.745 89.88C134.497 90.664 135.473 91.056 136.673 91.056C137.873 91.056 138.849 90.664 139.601 89.88C140.353 89.08 140.729 88.072 140.729 86.856C140.729 85.64 140.345 84.64 139.577 83.856C138.825 83.056 137.857 82.656 136.673 82.656C135.489 82.656 134.513 83.056 133.745 83.856C132.993 84.64 132.617 85.64 132.617 86.856C132.617 88.072 132.993 89.08 133.745 89.88ZM136.553 98.256C135.321 98.256 134.209 98.024 133.217 97.56C132.225 97.112 131.457 96.528 130.913 95.808L132.353 94.368C133.409 95.712 134.809 96.384 136.553 96.384C137.673 96.384 138.617 96.032 139.385 95.328C140.169 94.624 140.561 93.592 140.561 92.232V90.864C140.129 91.504 139.545 92.016 138.809 92.4C138.073 92.784 137.265 92.976 136.385 92.976C134.705 92.976 133.305 92.392 132.185 91.224C131.065 90.04 130.505 88.584 130.505 86.856C130.505 85.144 131.065 83.704 132.185 82.536C133.321 81.352 134.721 80.76 136.385 80.76C137.265 80.76 138.073 80.952 138.809 81.336C139.545 81.72 140.129 82.224 140.561 82.848V81H142.625V92.304C142.625 94.24 142.057 95.712 140.921 96.72C139.801 97.744 138.345 98.256 136.553 98.256ZM146.511 93V75H148.575V93H146.511ZM157.431 93.24C155.767 93.24 154.367 92.632 153.231 91.416C152.111 90.2 151.551 88.728 151.551 87C151.551 85.272 152.111 83.8 153.231 82.584C154.367 81.368 155.767 80.76 157.431 80.76C158.311 80.76 159.127 80.96 159.879 81.36C160.647 81.744 161.239 82.24 161.655 82.848V81H163.719V93H161.655V91.152C161.239 91.76 160.647 92.264 159.879 92.664C159.127 93.048 158.311 93.24 157.431 93.24ZM157.743 91.344C158.927 91.344 159.903 90.928 160.671 90.096C161.439 89.264 161.823 88.232 161.823 87C161.823 85.768 161.439 84.736 160.671 83.904C159.903 83.072 158.927 82.656 157.743 82.656C156.543 82.656 155.559 83.072 154.791 83.904C154.023 84.736 153.639 85.768 153.639 87C153.639 88.232 154.023 89.264 154.791 90.096C155.559 90.928 156.543 91.344 157.743 91.344ZM167.605 93V81H169.669V82.848C170.485 81.456 171.757 80.76 173.485 80.76C174.845 80.76 175.941 81.2 176.773 82.08C177.605 82.96 178.021 84.136 178.021 85.608V93H175.981V85.92C175.981 84.912 175.725 84.12 175.213 83.544C174.701 82.952 174.013 82.656 173.149 82.656C172.157 82.656 171.325 83.048 170.653 83.832C169.997 84.616 169.669 85.688 169.669 87.048V93H167.605ZM186.681 93.24C185.017 93.24 183.617 92.632 182.481 91.416C181.361 90.2 180.801 88.728 180.801 87C180.801 85.272 181.361 83.8 182.481 82.584C183.617 81.368 185.017 80.76 186.681 80.76C187.561 80.76 188.377 80.96 189.129 81.36C189.897 81.744 190.489 82.24 190.905 82.848V75H192.969V93H190.905V91.152C190.489 91.76 189.897 92.264 189.129 92.664C188.377 93.048 187.561 93.24 186.681 93.24ZM186.993 91.344C188.177 91.344 189.153 90.928 189.921 90.096C190.689 89.264 191.073 88.232 191.073 87C191.073 85.768 190.689 84.736 189.921 83.904C189.153 83.072 188.177 82.656 186.993 82.656C185.793 82.656 184.809 83.072 184.041 83.904C183.273 84.736 182.889 85.768 182.889 87C182.889 88.232 183.273 89.264 184.041 90.096C184.809 90.928 185.793 91.344 186.993 91.344ZM208.932 93.24C208.052 93.24 207.228 93.048 206.46 92.664C205.708 92.264 205.124 91.76 204.708 91.152V93H202.644V75H204.708V82.848C205.124 82.24 205.708 81.744 206.46 81.36C207.228 80.96 208.052 80.76 208.932 80.76C210.596 80.76 211.988 81.368 213.108 82.584C214.244 83.8 214.812 85.272 214.812 87C214.812 88.728 214.244 90.2 213.108 91.416C211.988 92.632 210.596 93.24 208.932 93.24ZM205.692 90.096C206.46 90.928 207.436 91.344 208.62 91.344C209.804 91.344 210.78 90.928 211.548 90.096C212.316 89.264 212.7 88.232 212.7 87C212.7 85.768 212.316 84.736 211.548 83.904C210.78 83.072 209.804 82.656 208.62 82.656C207.436 82.656 206.46 83.072 205.692 83.904C204.924 84.736 204.54 85.768 204.54 87C204.54 88.232 204.924 89.264 205.692 90.096ZM222.705 93.24C221.041 93.24 219.641 92.632 218.505 91.416C217.385 90.2 216.825 88.728 216.825 87C216.825 85.272 217.385 83.8 218.505 82.584C219.641 81.368 221.041 80.76 222.705 80.76C223.585 80.76 224.401 80.96 225.153 81.36C225.921 81.744 226.513 82.24 226.929 82.848V81H228.993V93H226.929V91.152C226.513 91.76 225.921 92.264 225.153 92.664C224.401 93.048 223.585 93.24 222.705 93.24ZM223.017 91.344C224.201 91.344 225.177 90.928 225.945 90.096C226.713 89.264 227.097 88.232 227.097 87C227.097 85.768 226.713 84.736 225.945 83.904C225.177 83.072 224.201 82.656 223.017 82.656C221.817 82.656 220.833 83.072 220.065 83.904C219.297 84.736 218.913 85.768 218.913 87C218.913 88.232 219.297 89.264 220.065 90.096C220.833 90.928 221.817 91.344 223.017 91.344ZM236.502 93.24C235.398 93.24 234.43 93.008 233.598 92.544C232.766 92.064 232.166 91.368 231.798 90.456L233.478 89.52C233.702 90.112 234.094 90.576 234.654 90.912C235.214 91.248 235.838 91.416 236.526 91.416C237.118 91.416 237.614 91.272 238.014 90.984C238.414 90.696 238.614 90.304 238.614 89.808C238.614 89.376 238.454 89.016 238.134 88.728C237.83 88.44 237.294 88.176 236.526 87.936L235.326 87.552C233.326 86.976 232.326 85.808 232.326 84.048C232.326 83.056 232.718 82.264 233.502 81.672C234.302 81.064 235.286 80.76 236.454 80.76C238.278 80.76 239.598 81.456 240.414 82.848L238.878 83.904C238.222 82.992 237.39 82.536 236.382 82.536C235.838 82.536 235.366 82.672 234.966 82.944C234.582 83.2 234.39 83.544 234.39 83.976C234.39 84.376 234.51 84.72 234.75 85.008C235.006 85.28 235.454 85.512 236.094 85.704L237.414 86.112C239.59 86.784 240.678 87.96 240.678 89.64C240.678 90.76 240.286 91.64 239.502 92.28C238.734 92.92 237.734 93.24 236.502 93.24ZM248.963 93.24C247.123 93.24 245.627 92.648 244.475 91.464C243.323 90.28 242.747 88.792 242.747 87C242.747 85.224 243.331 83.744 244.499 82.56C245.667 81.36 247.163 80.76 248.987 80.76C250.603 80.76 251.955 81.304 253.043 82.392C254.147 83.464 254.699 84.928 254.699 86.784C254.699 87.024 254.691 87.232 254.675 87.408H244.835C244.867 88.528 245.267 89.464 246.035 90.216C246.819 90.968 247.803 91.344 248.987 91.344C250.667 91.344 251.915 90.648 252.731 89.256L254.363 90.384C253.195 92.288 251.395 93.24 248.963 93.24ZM244.979 85.728H252.587C252.427 84.768 252.003 84.008 251.315 83.448C250.643 82.872 249.843 82.584 248.915 82.584C247.971 82.584 247.123 82.872 246.371 83.448C245.635 84.008 245.171 84.768 244.979 85.728ZM262.572 93.24C260.908 93.24 259.508 92.632 258.372 91.416C257.252 90.2 256.692 88.728 256.692 87C256.692 85.272 257.252 83.8 258.372 82.584C259.508 81.368 260.908 80.76 262.572 80.76C263.452 80.76 264.268 80.96 265.02 81.36C265.788 81.744 266.38 82.24 266.796 82.848V75H268.86V93H266.796V91.152C266.38 91.76 265.788 92.264 265.02 92.664C264.268 93.048 263.452 93.24 262.572 93.24ZM262.884 91.344C264.068 91.344 265.044 90.928 265.812 90.096C266.58 89.264 266.964 88.232 266.964 87C266.964 85.768 266.58 84.736 265.812 83.904C265.044 83.072 264.068 82.656 262.884 82.656C261.684 82.656 260.7 83.072 259.932 83.904C259.164 84.736 258.78 85.768 258.78 87C258.78 88.232 259.164 89.264 259.932 90.096C260.7 90.928 261.684 91.344 262.884 91.344ZM282.158 93.24C281.054 93.24 280.086 93.008 279.254 92.544C278.422 92.064 277.822 91.368 277.454 90.456L279.134 89.52C279.358 90.112 279.75 90.576 280.31 90.912C280.87 91.248 281.494 91.416 282.182 91.416C282.774 91.416 283.27 91.272 283.67 90.984C284.07 90.696 284.27 90.304 284.27 89.808C284.27 89.376 284.11 89.016 283.79 88.728C283.486 88.44 282.95 88.176 282.182 87.936L280.982 87.552C278.982 86.976 277.982 85.808 277.982 84.048C277.982 83.056 278.374 82.264 279.158 81.672C279.958 81.064 280.942 80.76 282.11 80.76C283.934 80.76 285.254 81.456 286.07 82.848L284.534 83.904C283.878 82.992 283.046 82.536 282.038 82.536C281.494 82.536 281.022 82.672 280.622 82.944C280.238 83.2 280.046 83.544 280.046 83.976C280.046 84.376 280.166 84.72 280.406 85.008C280.662 85.28 281.11 85.512 281.75 85.704L283.07 86.112C285.246 86.784 286.334 87.96 286.334 89.64C286.334 90.76 285.942 91.64 285.158 92.28C284.39 92.92 283.39 93.24 282.158 93.24ZM293.587 93.24C292.275 93.24 291.211 92.8 290.395 91.92C289.579 91.024 289.171 89.84 289.171 88.368V81H291.235V88.056C291.235 89.064 291.475 89.864 291.955 90.456C292.451 91.048 293.115 91.344 293.947 91.344C294.907 91.344 295.699 90.952 296.323 90.168C296.963 89.368 297.283 88.296 297.283 86.952V81H299.347V93H297.283V91.152C296.499 92.544 295.267 93.24 293.587 93.24ZM305.301 98.016H303.237V81H305.301V82.848C305.717 82.24 306.301 81.744 307.053 81.36C307.821 80.96 308.645 80.76 309.525 80.76C311.189 80.76 312.581 81.368 313.701 82.584C314.837 83.8 315.405 85.272 315.405 87C315.405 88.728 314.837 90.2 313.701 91.416C312.581 92.632 311.189 93.24 309.525 93.24C308.645 93.24 307.821 93.048 307.053 92.664C306.301 92.264 305.717 91.76 305.301 91.152V98.016ZM306.285 90.096C307.053 90.928 308.029 91.344 309.213 91.344C310.397 91.344 311.373 90.928 312.141 90.096C312.909 89.264 313.293 88.232 313.293 87C313.293 85.768 312.909 84.736 312.141 83.904C311.373 83.072 310.397 82.656 309.213 82.656C308.029 82.656 307.053 83.072 306.285 83.904C305.517 84.736 305.133 85.768 305.133 87C305.133 88.232 305.517 89.264 306.285 90.096ZM320.442 98.016H318.378V81H320.442V82.848C320.858 82.24 321.442 81.744 322.194 81.36C322.962 80.96 323.786 80.76 324.666 80.76C326.33 80.76 327.722 81.368 328.842 82.584C329.978 83.8 330.546 85.272 330.546 87C330.546 88.728 329.978 90.2 328.842 91.416C327.722 92.632 326.33 93.24 324.666 93.24C323.786 93.24 322.962 93.048 322.194 92.664C321.442 92.264 320.858 91.76 320.442 91.152V98.016ZM321.426 90.096C322.194 90.928 323.17 91.344 324.354 91.344C325.538 91.344 326.514 90.928 327.282 90.096C328.05 89.264 328.434 88.232 328.434 87C328.434 85.768 328.05 84.736 327.282 83.904C326.514 83.072 325.538 82.656 324.354 82.656C323.17 82.656 322.194 83.072 321.426 83.904C320.658 84.736 320.274 85.768 320.274 87C320.274 88.232 320.658 89.264 321.426 90.096ZM338.847 93.24C337.039 93.24 335.535 92.64 334.335 91.44C333.151 90.224 332.559 88.744 332.559 87C332.559 85.256 333.151 83.784 334.335 82.584C335.535 81.368 337.039 80.76 338.847 80.76C340.639 80.76 342.127 81.368 343.311 82.584C344.511 83.784 345.111 85.256 345.111 87C345.111 88.744 344.511 90.224 343.311 91.44C342.127 92.64 340.639 93.24 338.847 93.24ZM335.823 90.072C336.607 90.904 337.615 91.32 338.847 91.32C340.079 91.32 341.079 90.904 341.847 90.072C342.615 89.24 342.999 88.216 342.999 87C342.999 85.784 342.615 84.76 341.847 83.928C341.079 83.096 340.079 82.68 338.847 82.68C337.615 82.68 336.607 83.096 335.823 83.928C335.055 84.76 334.671 85.784 334.671 87C334.671 88.216 335.055 89.24 335.823 90.072ZM348.073 93V81H350.137V83.328C350.361 82.592 350.793 82 351.433 81.552C352.089 81.104 352.777 80.88 353.497 80.88C353.849 80.88 354.161 80.912 354.433 80.976V83.112C354.145 82.984 353.769 82.92 353.305 82.92C352.473 82.92 351.737 83.28 351.097 84C350.457 84.72 350.137 85.736 350.137 87.048V93H348.073ZM361.518 93.12C360.414 93.12 359.526 92.808 358.854 92.184C358.182 91.56 357.846 90.648 357.846 89.448V82.896H355.302V81H357.846V77.664H359.91V81H363.366V82.896H359.91V89.184C359.91 89.936 360.07 90.464 360.39 90.768C360.71 91.072 361.214 91.224 361.902 91.224C362.51 91.224 362.998 91.144 363.366 90.984V92.832C362.79 93.024 362.174 93.12 361.518 93.12Z" fill="#3C3C3C"/>
<path fill-rule="evenodd" clip-rule="evenodd" d="M28.0409 132.584H13.5925C8.55755 132.584 5.40088 136.149 5.40088 141.194V154.807C5.40088 159.852 8.54255 163.417 13.5925 163.417H28.0392C33.0909 163.417 36.2342 159.852 36.2342 154.807V141.194C36.2342 136.149 33.0909 132.584 28.0409 132.584Z" fill="#00BE82"/>
<path d="M14.8833 148L18.84 151.955L26.75 144.045" stroke="white" stroke-width="1.5" stroke-linecap="round" stroke-linejoin="round"/>
<path d="M66.7049 157.288C64.2569 157.288 62.1769 156.44 60.4649 154.744C58.7529 153.032 57.8969 150.944 57.8969 148.48C57.8969 146.016 58.7529 143.936 60.4649 142.24C62.1769 140.528 64.2569 139.672 66.7049 139.672C68.3209 139.672 69.7849 140.04 71.0969 140.776C72.4089 141.512 73.4569 142.52 74.2409 143.8L72.3689 144.928C71.7609 143.952 70.9689 143.184 69.9929 142.624C69.0169 142.064 67.9209 141.784 66.7049 141.784C64.8489 141.784 63.2889 142.432 62.0249 143.728C60.7769 145.024 60.1529 146.608 60.1529 148.48C60.1529 150.352 60.7769 151.936 62.0249 153.232C63.2889 154.528 64.8489 155.176 66.7049 155.176C67.9209 155.176 69.0169 154.896 69.9929 154.336C70.9689 153.776 71.7609 153.008 72.3689 152.032L74.2409 153.16C73.4569 154.44 72.4089 155.448 71.0969 156.184C69.7849 156.92 68.3209 157.288 66.7049 157.288ZM78.9421 157H76.8781V139H78.9421V146.848C79.7581 145.456 81.0301 144.76 82.7581 144.76C84.1181 144.76 85.2141 145.2 86.0461 146.08C86.8781 146.96 87.2941 148.136 87.2941 149.608V157H85.2541V149.92C85.2541 148.912 84.9981 148.12 84.4861 147.544C83.9741 146.952 83.2861 146.656 82.4221 146.656C81.4301 146.656 80.5981 147.048 79.9261 147.832C79.2701 148.616 78.9421 149.688 78.9421 151.048V157ZM96.3389 157.24C94.5309 157.24 93.0269 156.64 91.8269 155.44C90.6429 154.224 90.0509 152.744 90.0509 151C90.0509 149.256 90.6429 147.784 91.8269 146.584C93.0269 145.368 94.5309 144.76 96.3389 144.76C98.1309 144.76 99.6189 145.368 100.803 146.584C102.003 147.784 102.603 149.256 102.603 151C102.603 152.744 102.003 154.224 100.803 155.44C99.6189 156.64 98.1309 157.24 96.3389 157.24ZM93.3149 154.072C94.0989 154.904 95.1069 155.32 96.3389 155.32C97.5709 155.32 98.5709 154.904 99.3389 154.072C100.107 153.24 100.491 152.216 100.491 151C100.491 149.784 100.107 148.76 99.3389 147.928C98.5709 147.096 97.5709 146.68 96.3389 146.68C95.1069 146.68 94.0989 147.096 93.3149 147.928C92.5469 148.76 92.1629 149.784 92.1629 151C92.1629 152.216 92.5469 153.24 93.3149 154.072ZM110.894 157.24C109.086 157.24 107.582 156.64 106.382 155.44C105.198 154.224 104.606 152.744 104.606 151C104.606 149.256 105.198 147.784 106.382 146.584C107.582 145.368 109.086 144.76 110.894 144.76C112.686 144.76 114.174 145.368 115.358 146.584C116.558 147.784 117.158 149.256 117.158 151C117.158 152.744 116.558 154.224 115.358 155.44C114.174 156.64 112.686 157.24 110.894 157.24ZM107.87 154.072C108.654 154.904 109.662 155.32 110.894 155.32C112.126 155.32 113.126 154.904 113.894 154.072C114.662 153.24 115.046 152.216 115.046 151C115.046 149.784 114.662 148.76 113.894 147.928C113.126 147.096 112.126 146.68 110.894 146.68C109.662 146.68 108.654 147.096 107.87 147.928C107.102 148.76 106.718 149.784 106.718 151C106.718 152.216 107.102 153.24 107.87 154.072ZM123.721 157.24C122.617 157.24 121.649 157.008 120.817 156.544C119.985 156.064 119.385 155.368 119.017 154.456L120.697 153.52C120.921 154.112 121.313 154.576 121.873 154.912C122.433 155.248 123.057 155.416 123.745 155.416C124.337 155.416 124.833 155.272 125.233 154.984C125.633 154.696 125.833 154.304 125.833 153.808C125.833 153.376 125.673 153.016 125.353 152.728C125.049 152.44 124.513 152.176 123.745 151.936L122.545 151.552C120.545 150.976 119.545 149.808 119.545 148.048C119.545 147.056 119.937 146.264 120.721 145.672C121.521 145.064 122.505 144.76 123.673 144.76C125.497 144.76 126.817 145.456 127.633 146.848L126.097 147.904C125.441 146.992 124.609 146.536 123.601 146.536C123.057 146.536 122.585 146.672 122.185 146.944C121.801 147.2 121.609 147.544 121.609 147.976C121.609 148.376 121.729 148.72 121.969 149.008C122.225 149.28 122.673 149.512 123.313 149.704L124.633 150.112C126.809 150.784 127.897 151.96 127.897 153.64C127.897 154.76 127.505 155.64 126.721 156.28C125.953 156.92 124.953 157.24 123.721 157.24ZM136.182 157.24C134.342 157.24 132.846 156.648 131.694 155.464C130.542 154.28 129.966 152.792 129.966 151C129.966 149.224 130.55 147.744 131.718 146.56C132.886 145.36 134.382 144.76 136.206 144.76C137.822 144.76 139.174 145.304 140.262 146.392C141.366 147.464 141.918 148.928 141.918 150.784C141.918 151.024 141.91 151.232 141.894 151.408H132.054C132.086 152.528 132.486 153.464 133.254 154.216C134.038 154.968 135.022 155.344 136.206 155.344C137.886 155.344 139.134 154.648 139.95 153.256L141.582 154.384C140.414 156.288 138.614 157.24 136.182 157.24ZM132.198 149.728H139.806C139.646 148.768 139.222 148.008 138.534 147.448C137.862 146.872 137.062 146.584 136.134 146.584C135.19 146.584 134.342 146.872 133.59 147.448C132.854 148.008 132.39 148.768 132.198 149.728ZM156.924 157.24C156.044 157.24 155.22 157.048 154.452 156.664C153.7 156.264 153.116 155.76 152.7 155.152V157H150.636V139H152.7V146.848C153.116 146.24 153.7 145.744 154.452 145.36C155.22 144.96 156.044 144.76 156.924 144.76C158.588 144.76 159.98 145.368 161.1 146.584C162.236 147.8 162.804 149.272 162.804 151C162.804 152.728 162.236 154.2 161.1 155.416C159.98 156.632 158.588 157.24 156.924 157.24ZM153.684 154.096C154.452 154.928 155.428 155.344 156.612 155.344C157.796 155.344 158.772 154.928 159.54 154.096C160.308 153.264 160.692 152.232 160.692 151C160.692 149.768 160.308 148.736 159.54 147.904C158.772 147.072 157.796 146.656 156.612 146.656C155.428 146.656 154.452 147.072 153.684 147.904C152.916 148.736 152.532 149.768 152.532 151C152.532 152.232 152.916 153.264 153.684 154.096ZM171.033 157.24C169.193 157.24 167.697 156.648 166.545 155.464C165.393 154.28 164.817 152.792 164.817 151C164.817 149.224 165.401 147.744 166.569 146.56C167.737 145.36 169.233 144.76 171.057 144.76C172.673 144.76 174.025 145.304 175.113 146.392C176.217 147.464 176.769 148.928 176.769 150.784C176.769 151.024 176.761 151.232 176.745 151.408H166.905C166.937 152.528 167.337 153.464 168.105 154.216C168.889 154.968 169.873 155.344 171.057 155.344C172.737 155.344 173.985 154.648 174.801 153.256L176.433 154.384C175.265 156.288 173.465 157.24 171.033 157.24ZM167.049 149.728H174.657C174.497 148.768 174.073 148.008 173.385 147.448C172.713 146.872 171.913 146.584 170.985 146.584C170.041 146.584 169.193 146.872 168.441 147.448C167.705 148.008 167.241 148.768 167.049 149.728ZM184.19 157.12C183.086 157.12 182.198 156.808 181.526 156.184C180.854 155.56 180.518 154.648 180.518 153.448V146.896H177.974V145H180.518V141.664H182.582V145H186.038V146.896H182.582V153.184C182.582 153.936 182.742 154.464 183.062 154.768C183.382 155.072 183.886 155.224 184.574 155.224C185.182 155.224 185.67 155.144 186.038 154.984V156.832C185.462 157.024 184.846 157.12 184.19 157.12ZM198.851 157L195.875 148.384L192.923 157H191.099L187.019 145H189.179L192.083 153.76L195.083 145H196.667L199.667 153.76L202.571 145H204.755L200.675 157H198.851ZM212.213 157.24C210.373 157.24 208.877 156.648 207.725 155.464C206.573 154.28 205.997 152.792 205.997 151C205.997 149.224 206.581 147.744 207.749 146.56C208.917 145.36 210.413 144.76 212.237 144.76C213.853 144.76 215.205 145.304 216.293 146.392C217.397 147.464 217.949 148.928 217.949 150.784C217.949 151.024 217.941 151.232 217.925 151.408H208.085C208.117 152.528 208.517 153.464 209.285 154.216C210.069 154.968 211.053 155.344 212.237 155.344C213.917 155.344 215.165 154.648 215.981 153.256L217.613 154.384C216.445 156.288 214.645 157.24 212.213 157.24ZM208.229 149.728H215.837C215.677 148.768 215.253 148.008 214.565 147.448C213.893 146.872 213.093 146.584 212.165 146.584C211.221 146.584 210.373 146.872 209.621 147.448C208.885 148.008 208.421 148.768 208.229 149.728ZM226.158 157.24C224.318 157.24 222.822 156.648 221.67 155.464C220.518 154.28 219.942 152.792 219.942 151C219.942 149.224 220.526 147.744 221.694 146.56C222.862 145.36 224.358 144.76 226.182 144.76C227.798 144.76 229.15 145.304 230.238 146.392C231.342 147.464 231.894 148.928 231.894 150.784C231.894 151.024 231.886 151.232 231.87 151.408H222.03C222.062 152.528 222.462 153.464 223.23 154.216C224.014 154.968 224.998 155.344 226.182 155.344C227.862 155.344 229.11 154.648 229.926 153.256L231.558 154.384C230.39 156.288 228.59 157.24 226.158 157.24ZM222.174 149.728H229.782C229.622 148.768 229.198 148.008 228.51 147.448C227.838 146.872 227.038 146.584 226.11 146.584C225.166 146.584 224.318 146.872 223.566 147.448C222.83 148.008 222.366 148.768 222.174 149.728ZM234.823 157V145H236.887V146.848C237.703 145.456 238.975 144.76 240.703 144.76C242.063 144.76 243.159 145.2 243.991 146.08C244.823 146.96 245.239 148.136 245.239 149.608V157H243.199V149.92C243.199 148.912 242.943 148.12 242.431 147.544C241.919 146.952 241.231 146.656 240.367 146.656C239.375 146.656 238.543 147.048 237.871 147.832C237.215 148.616 236.887 149.688 236.887 151.048V157H234.823ZM254.745 157V139H256.809V157H254.745ZM262.81 141.376C262.538 141.648 262.194 141.784 261.778 141.784C261.362 141.784 261.01 141.648 260.722 141.376C260.434 141.088 260.29 140.736 260.29 140.32C260.29 139.92 260.434 139.576 260.722 139.288C261.01 139 261.362 138.856 261.778 138.856C262.194 138.856 262.538 139 262.81 139.288C263.082 139.576 263.218 139.92 263.218 140.32C263.218 140.736 263.082 141.088 262.81 141.376ZM260.722 157V145H262.786V157H260.722ZM270.442 157L264.898 145H267.202L271.306 154.096L275.41 145H277.714L272.17 157H270.442ZM284.822 157.24C282.982 157.24 281.486 156.648 280.334 155.464C279.182 154.28 278.606 152.792 278.606 151C278.606 149.224 279.19 147.744 280.358 146.56C281.526 145.36 283.022 144.76 284.846 144.76C286.462 144.76 287.814 145.304 288.902 146.392C290.006 147.464 290.558 148.928 290.558 150.784C290.558 151.024 290.55 151.232 290.534 151.408H280.694C280.726 152.528 281.126 153.464 281.894 154.216C282.678 154.968 283.662 155.344 284.846 155.344C286.526 155.344 287.774 154.648 288.59 153.256L290.222 154.384C289.054 156.288 287.254 157.24 284.822 157.24ZM280.838 149.728H288.446C288.286 148.768 287.862 148.008 287.174 147.448C286.502 146.872 285.702 146.584 284.774 146.584C283.83 146.584 282.982 146.872 282.23 147.448C281.494 148.008 281.03 148.768 280.838 149.728ZM304.629 157.24C302.821 157.24 301.317 156.64 300.117 155.44C298.933 154.24 298.341 152.76 298.341 151C298.341 149.24 298.933 147.76 300.117 146.56C301.317 145.36 302.821 144.76 304.629 144.76C305.845 144.76 306.933 145.048 307.893 145.624C308.869 146.2 309.629 146.984 310.173 147.976L308.373 148.984C308.021 148.28 307.517 147.72 306.861 147.304C306.221 146.888 305.477 146.68 304.629 146.68C303.397 146.68 302.389 147.096 301.605 147.928C300.821 148.76 300.429 149.784 300.429 151C300.429 152.216 300.821 153.24 301.605 154.072C302.389 154.904 303.397 155.32 304.629 155.32C305.477 155.32 306.221 155.112 306.861 154.696C307.517 154.28 308.021 153.72 308.373 153.016L310.173 154.024C309.629 155.016 308.869 155.8 307.893 156.376C306.933 156.952 305.845 157.24 304.629 157.24ZM314.911 157H312.847V139H314.911V146.848C315.727 145.456 316.999 144.76 318.727 144.76C320.087 144.76 321.183 145.2 322.015 146.08C322.847 146.96 323.263 148.136 323.263 149.608V157H321.223V149.92C321.223 148.912 320.967 148.12 320.455 147.544C319.943 146.952 319.255 146.656 318.391 146.656C317.399 146.656 316.567 147.048 315.895 147.832C315.239 148.616 314.911 149.688 314.911 151.048V157ZM331.924 157.24C330.26 157.24 328.86 156.632 327.724 155.416C326.604 154.2 326.044 152.728 326.044 151C326.044 149.272 326.604 147.8 327.724 146.584C328.86 145.368 330.26 144.76 331.924 144.76C332.804 144.76 333.62 144.96 334.372 145.36C335.14 145.744 335.732 146.24 336.148 146.848V145H338.212V157H336.148V155.152C335.732 155.76 335.14 156.264 334.372 156.664C333.62 157.048 332.804 157.24 331.924 157.24ZM332.236 155.344C333.42 155.344 334.396 154.928 335.164 154.096C335.932 153.264 336.316 152.232 336.316 151C336.316 149.768 335.932 148.736 335.164 147.904C334.396 147.072 333.42 146.656 332.236 146.656C331.036 146.656 330.052 147.072 329.284 147.904C328.516 148.736 328.132 149.768 328.132 151C328.132 152.232 328.516 153.264 329.284 154.096C330.052 154.928 331.036 155.344 332.236 155.344ZM346.753 157.12C345.649 157.12 344.761 156.808 344.089 156.184C343.417 155.56 343.081 154.648 343.081 153.448V146.896H340.537V145H343.081V141.664H345.145V145H348.601V146.896H345.145V153.184C345.145 153.936 345.305 154.464 345.625 154.768C345.945 155.072 346.449 155.224 347.137 155.224C347.745 155.224 348.233 155.144 348.601 154.984V156.832C348.025 157.024 347.409 157.12 346.753 157.12ZM362.355 157.24C360.547 157.24 359.043 156.64 357.843 155.44C356.659 154.224 356.067 152.744 356.067 151C356.067 149.256 356.659 147.784 357.843 146.584C359.043 145.368 360.547 144.76 362.355 144.76C364.147 144.76 365.635 145.368 366.819 146.584C368.019 147.784 368.619 149.256 368.619 151C368.619 152.744 368.019 154.224 366.819 155.44C365.635 156.64 364.147 157.24 362.355 157.24ZM359.331 154.072C360.115 154.904 361.123 155.32 362.355 155.32C363.587 155.32 364.587 154.904 365.355 154.072C366.123 153.24 366.507 152.216 366.507 151C366.507 149.784 366.123 148.76 365.355 147.928C364.587 147.096 363.587 146.68 362.355 146.68C361.123 146.68 360.115 147.096 359.331 147.928C358.563 148.76 358.179 149.784 358.179 151C358.179 152.216 358.563 153.24 359.331 154.072ZM371.581 157V145H373.645V147.328C373.869 146.592 374.301 146 374.941 145.552C375.597 145.104 376.285 144.88 377.005 144.88C377.357 144.88 377.669 144.912 377.941 144.976V147.112C377.653 146.984 377.277 146.92 376.813 146.92C375.981 146.92 375.245 147.28 374.605 148C373.965 148.72 373.645 149.736 373.645 151.048V157H371.581ZM390.83 157.24C388.99 157.24 387.494 156.648 386.342 155.464C385.19 154.28 384.614 152.792 384.614 151C384.614 149.224 385.198 147.744 386.366 146.56C387.534 145.36 389.03 144.76 390.854 144.76C392.47 144.76 393.822 145.304 394.91 146.392C396.014 147.464 396.566 148.928 396.566 150.784C396.566 151.024 396.558 151.232 396.542 151.408H386.702C386.734 152.528 387.134 153.464 387.902 154.216C388.686 154.968 389.67 155.344 390.854 155.344C392.534 155.344 393.782 154.648 394.598 153.256L396.23 154.384C395.062 156.288 393.262 157.24 390.83 157.24ZM386.846 149.728H394.454C394.294 148.768 393.87 148.008 393.182 147.448C392.51 146.872 391.71 146.584 390.782 146.584C389.838 146.584 388.99 146.872 388.238 147.448C387.502 148.008 387.038 148.768 386.846 149.728ZM414.951 157V149.944C414.951 148.952 414.743 148.16 414.327 147.568C413.927 146.96 413.343 146.656 412.575 146.656C411.615 146.656 410.831 147.032 410.223 147.784C409.631 148.536 409.319 149.56 409.287 150.856V157H407.223V149.944C407.223 148.936 407.015 148.136 406.599 147.544C406.199 146.952 405.623 146.656 404.871 146.656C403.879 146.656 403.079 147.056 402.471 147.856C401.863 148.64 401.559 149.704 401.559 151.048V157H399.495V145H401.559V146.848C402.327 145.456 403.535 144.76 405.183 144.76C407.007 144.76 408.239 145.616 408.879 147.328C409.199 146.544 409.711 145.92 410.415 145.456C411.119 144.992 411.919 144.76 412.815 144.76C414.111 144.76 415.135 145.2 415.887 146.08C416.639 146.96 417.015 148.144 417.015 149.632V157H414.951ZM425.674 157.24C424.01 157.24 422.61 156.632 421.474 155.416C420.354 154.2 419.794 152.728 419.794 151C419.794 149.272 420.354 147.8 421.474 146.584C422.61 145.368 424.01 144.76 425.674 144.76C426.554 144.76 427.37 144.96 428.122 145.36C428.89 145.744 429.482 146.24 429.898 146.848V145H431.962V157H429.898V155.152C429.482 155.76 428.89 156.264 428.122 156.664C427.37 157.048 426.554 157.24 425.674 157.24ZM425.986 155.344C427.17 155.344 428.146 154.928 428.914 154.096C429.682 153.264 430.066 152.232 430.066 151C430.066 149.768 429.682 148.736 428.914 147.904C428.146 147.072 427.17 146.656 425.986 146.656C424.786 146.656 423.802 147.072 423.034 147.904C422.266 148.736 421.882 149.768 421.882 151C421.882 152.232 422.266 153.264 423.034 154.096C423.802 154.928 424.786 155.344 425.986 155.344ZM437.935 141.376C437.663 141.648 437.319 141.784 436.903 141.784C436.487 141.784 436.135 141.648 435.847 141.376C435.559 141.088 435.415 140.736 435.415 140.32C435.415 139.92 435.559 139.576 435.847 139.288C436.135 139 436.487 138.856 436.903 138.856C437.319 138.856 437.663 139 437.935 139.288C438.207 139.576 438.343 139.92 438.343 140.32C438.343 140.736 438.207 141.088 437.935 141.376ZM435.847 157V145H437.911V157H435.847ZM441.823 157V139H443.887V157H441.823Z" fill="#3C3C3C"/>
<path fill-rule="evenodd" clip-rule="evenodd" d="M28.0409 196.584H13.5925C8.55755 196.584 5.40088 200.149 5.40088 205.194V218.807C5.40088 223.852 8.54255 227.417 13.5925 227.417H28.0392C33.0909 227.417 36.2342 223.852 36.2342 218.807V205.194C36.2342 200.149 33.0909 196.584 28.0409 196.584Z" fill="#00BE82"/>
<path d="M14.8833 212L18.84 215.955L26.75 208.045" stroke="white" stroke-width="1.5" stroke-linecap="round" stroke-linejoin="round"/>
<path d="M68.5049 205.496C69.5929 206.52 70.1369 207.816 70.1369 209.384C70.1369 210.952 69.5929 212.248 68.5049 213.272C67.4329 214.28 66.0249 214.784 64.2809 214.784H61.3049V221H59.0729V203.96H64.2809C66.0249 203.96 67.4329 204.472 68.5049 205.496ZM66.9449 211.784C67.6009 211.16 67.9289 210.36 67.9289 209.384C67.9289 208.408 67.6009 207.608 66.9449 206.984C66.3049 206.36 65.4169 206.048 64.2809 206.048H61.3049V212.72H64.2809C65.4169 212.72 66.3049 212.408 66.9449 211.784ZM77.7284 221.24C75.8884 221.24 74.3924 220.648 73.2404 219.464C72.0884 218.28 71.5124 216.792 71.5124 215C71.5124 213.224 72.0964 211.744 73.2644 210.56C74.4324 209.36 75.9284 208.76 77.7524 208.76C79.3684 208.76 80.7204 209.304 81.8084 210.392C82.9124 211.464 83.4644 212.928 83.4644 214.784C83.4644 215.024 83.4564 215.232 83.4404 215.408H73.6004C73.6324 216.528 74.0324 217.464 74.8004 218.216C75.5844 218.968 76.5684 219.344 77.7524 219.344C79.4324 219.344 80.6804 218.648 81.4964 217.256L83.1284 218.384C81.9604 220.288 80.1604 221.24 77.7284 221.24ZM73.7444 213.728H81.3524C81.1924 212.768 80.7684 212.008 80.0804 211.448C79.4084 210.872 78.6084 210.584 77.6804 210.584C76.7364 210.584 75.8884 210.872 75.1364 211.448C74.4004 212.008 73.9364 212.768 73.7444 213.728ZM86.3937 221V209H88.4577V211.328C88.6817 210.592 89.1137 210 89.7537 209.552C90.4097 209.104 91.0977 208.88 91.8177 208.88C92.1697 208.88 92.4817 208.912 92.7537 208.976V211.112C92.4657 210.984 92.0897 210.92 91.6257 210.92C90.7937 210.92 90.0577 211.28 89.4177 212C88.7777 212.72 88.4577 213.736 88.4577 215.048V221H86.3937ZM98.5724 221.24C97.4684 221.24 96.5004 221.008 95.6684 220.544C94.8364 220.064 94.2364 219.368 93.8684 218.456L95.5484 217.52C95.7724 218.112 96.1644 218.576 96.7244 218.912C97.2844 219.248 97.9084 219.416 98.5964 219.416C99.1884 219.416 99.6844 219.272 100.084 218.984C100.484 218.696 100.684 218.304 100.684 217.808C100.684 217.376 100.524 217.016 100.204 216.728C99.9004 216.44 99.3644 216.176 98.5964 215.936L97.3964 215.552C95.3964 214.976 94.3964 213.808 94.3964 212.048C94.3964 211.056 94.7884 210.264 95.5724 209.672C96.3724 209.064 97.3564 208.76 98.5244 208.76C100.348 208.76 101.668 209.456 102.484 210.848L100.948 211.904C100.292 210.992 99.4604 210.536 98.4524 210.536C97.9084 210.536 97.4364 210.672 97.0364 210.944C96.6524 211.2 96.4604 211.544 96.4604 211.976C96.4604 212.376 96.5804 212.72 96.8204 213.008C97.0764 213.28 97.5244 213.512 98.1644 213.704L99.4844 214.112C101.66 214.784 102.748 215.96 102.748 217.64C102.748 218.76 102.356 219.64 101.572 220.28C100.804 220.92 99.8044 221.24 98.5724 221.24ZM111.081 221.24C109.273 221.24 107.769 220.64 106.569 219.44C105.385 218.224 104.793 216.744 104.793 215C104.793 213.256 105.385 211.784 106.569 210.584C107.769 209.368 109.273 208.76 111.081 208.76C112.873 208.76 114.361 209.368 115.545 210.584C116.745 211.784 117.345 213.256 117.345 215C117.345 216.744 116.745 218.224 115.545 219.44C114.361 220.64 112.873 221.24 111.081 221.24ZM108.057 218.072C108.841 218.904 109.849 219.32 111.081 219.32C112.313 219.32 113.313 218.904 114.081 218.072C114.849 217.24 115.233 216.216 115.233 215C115.233 213.784 114.849 212.76 114.081 211.928C113.313 211.096 112.313 210.68 111.081 210.68C109.849 210.68 108.841 211.096 108.057 211.928C107.289 212.76 106.905 213.784 106.905 215C106.905 216.216 107.289 217.24 108.057 218.072ZM120.308 221V209H122.372V210.848C123.188 209.456 124.46 208.76 126.188 208.76C127.548 208.76 128.644 209.2 129.476 210.08C130.308 210.96 130.724 212.136 130.724 213.608V221H128.684V213.92C128.684 212.912 128.428 212.12 127.916 211.544C127.404 210.952 126.716 210.656 125.852 210.656C124.86 210.656 124.028 211.048 123.356 211.832C122.7 212.616 122.372 213.688 122.372 215.048V221H120.308ZM139.385 221.24C137.721 221.24 136.321 220.632 135.185 219.416C134.065 218.2 133.505 216.728 133.505 215C133.505 213.272 134.065 211.8 135.185 210.584C136.321 209.368 137.721 208.76 139.385 208.76C140.265 208.76 141.081 208.96 141.833 209.36C142.601 209.744 143.193 210.24 143.609 210.848V209H145.673V221H143.609V219.152C143.193 219.76 142.601 220.264 141.833 220.664C141.081 221.048 140.265 221.24 139.385 221.24ZM139.697 219.344C140.881 219.344 141.857 218.928 142.625 218.096C143.393 217.264 143.777 216.232 143.777 215C143.777 213.768 143.393 212.736 142.625 211.904C141.857 211.072 140.881 210.656 139.697 210.656C138.497 210.656 137.513 211.072 136.745 211.904C135.977 212.736 135.593 213.768 135.593 215C135.593 216.232 135.977 217.264 136.745 218.096C137.513 218.928 138.497 219.344 139.697 219.344ZM155.846 221.24C154.966 221.24 154.142 221.048 153.374 220.664C152.622 220.264 152.038 219.76 151.622 219.152V221H149.558V203H151.622V210.848C152.038 210.24 152.622 209.744 153.374 209.36C154.142 208.96 154.966 208.76 155.846 208.76C157.51 208.76 158.902 209.368 160.022 210.584C161.158 211.8 161.726 213.272 161.726 215C161.726 216.728 161.158 218.2 160.022 219.416C158.902 220.632 157.51 221.24 155.846 221.24ZM152.606 218.096C153.374 218.928 154.35 219.344 155.534 219.344C156.718 219.344 157.694 218.928 158.462 218.096C159.23 217.264 159.614 216.232 159.614 215C159.614 213.768 159.23 212.736 158.462 211.904C157.694 211.072 156.718 210.656 155.534 210.656C154.35 210.656 153.374 211.072 152.606 211.904C151.838 212.736 151.454 213.768 151.454 215C151.454 216.232 151.838 217.264 152.606 218.096ZM164.675 221V203H166.739V221H164.675ZM175.932 221.24C174.092 221.24 172.596 220.648 171.444 219.464C170.292 218.28 169.716 216.792 169.716 215C169.716 213.224 170.3 211.744 171.468 210.56C172.636 209.36 174.132 208.76 175.956 208.76C177.572 208.76 178.924 209.304 180.012 210.392C181.116 211.464 181.668 212.928 181.668 214.784C181.668 215.024 181.66 215.232 181.644 215.408H171.804C171.836 216.528 172.236 217.464 173.004 218.216C173.788 218.968 174.772 219.344 175.956 219.344C177.636 219.344 178.884 218.648 179.7 217.256L181.332 218.384C180.164 220.288 178.364 221.24 175.932 221.24ZM171.948 213.728H179.556C179.396 212.768 178.972 212.008 178.284 211.448C177.612 210.872 176.812 210.584 175.884 210.584C174.94 210.584 174.092 210.872 173.34 211.448C172.604 212.008 172.14 212.768 171.948 213.728ZM200.14 221L197.164 212.384L194.212 221H192.388L188.308 209H190.468L193.372 217.76L196.372 209H197.956L200.956 217.76L203.86 209H206.044L201.964 221H200.14ZM210.333 221H208.269V203H210.333V210.848C211.149 209.456 212.421 208.76 214.149 208.76C215.509 208.76 216.605 209.2 217.437 210.08C218.269 210.96 218.685 212.136 218.685 213.608V221H216.645V213.92C216.645 212.912 216.389 212.12 215.877 211.544C215.365 210.952 214.677 210.656 213.813 210.656C212.821 210.656 211.989 211.048 211.317 211.832C210.661 212.616 210.333 213.688 210.333 215.048V221ZM224.49 205.376C224.218 205.648 223.874 205.784 223.458 205.784C223.042 205.784 222.69 205.648 222.402 205.376C222.114 205.088 221.97 204.736 221.97 204.32C221.97 203.92 222.114 203.576 222.402 203.288C222.69 203 223.042 202.856 223.458 202.856C223.874 202.856 224.218 203 224.49 203.288C224.762 203.576 224.898 203.92 224.898 204.32C224.898 204.736 224.762 205.088 224.49 205.376ZM222.402 221V209H224.466V221H222.402ZM233.034 221.12C231.93 221.12 231.042 220.808 230.37 220.184C229.698 219.56 229.362 218.648 229.362 217.448V210.896H226.818V209H229.362V205.664H231.426V209H234.882V210.896H231.426V217.184C231.426 217.936 231.586 218.464 231.906 218.768C232.226 219.072 232.73 219.224 233.418 219.224C234.026 219.224 234.514 219.144 234.882 218.984V220.832C234.306 221.024 233.69 221.12 233.034 221.12ZM242.635 221.24C240.795 221.24 239.299 220.648 238.147 219.464C236.995 218.28 236.419 216.792 236.419 215C236.419 213.224 237.003 211.744 238.171 210.56C239.339 209.36 240.835 208.76 242.659 208.76C244.275 208.76 245.627 209.304 246.715 210.392C247.819 211.464 248.371 212.928 248.371 214.784C248.371 215.024 248.363 215.232 248.347 215.408H238.507C238.539 216.528 238.939 217.464 239.707 218.216C240.491 218.968 241.475 219.344 242.659 219.344C244.339 219.344 245.587 218.648 246.403 217.256L248.035 218.384C246.867 220.288 245.067 221.24 242.635 221.24ZM238.651 213.728H246.259C246.099 212.768 245.675 212.008 244.987 211.448C244.315 210.872 243.515 210.584 242.587 210.584C241.643 210.584 240.795 210.872 240.043 211.448C239.307 212.008 238.843 212.768 238.651 213.728ZM250.916 215.312V213.248H257.036V215.312H250.916ZM262.862 217.88C263.614 218.664 264.59 219.056 265.79 219.056C266.99 219.056 267.966 218.664 268.718 217.88C269.47 217.08 269.846 216.072 269.846 214.856C269.846 213.64 269.462 212.64 268.694 211.856C267.942 211.056 266.974 210.656 265.79 210.656C264.606 210.656 263.63 211.056 262.862 211.856C262.11 212.64 261.734 213.64 261.734 214.856C261.734 216.072 262.11 217.08 262.862 217.88ZM265.67 226.256C264.438 226.256 263.326 226.024 262.334 225.56C261.342 225.112 260.574 224.528 260.03 223.808L261.47 222.368C262.526 223.712 263.926 224.384 265.67 224.384C266.79 224.384 267.734 224.032 268.502 223.328C269.286 222.624 269.678 221.592 269.678 220.232V218.864C269.246 219.504 268.662 220.016 267.926 220.4C267.19 220.784 266.382 220.976 265.502 220.976C263.822 220.976 262.422 220.392 261.302 219.224C260.182 218.04 259.622 216.584 259.622 214.856C259.622 213.144 260.182 211.704 261.302 210.536C262.438 209.352 263.838 208.76 265.502 208.76C266.382 208.76 267.19 208.952 267.926 209.336C268.662 209.72 269.246 210.224 269.678 210.848V209H271.742V220.304C271.742 222.24 271.174 223.712 270.038 224.72C268.918 225.744 267.462 226.256 265.67 226.256ZM275.628 221V203H277.692V221H275.628ZM286.933 221.24C285.125 221.24 283.621 220.64 282.421 219.44C281.237 218.224 280.645 216.744 280.645 215C280.645 213.256 281.237 211.784 282.421 210.584C283.621 209.368 285.125 208.76 286.933 208.76C288.725 208.76 290.213 209.368 291.397 210.584C292.597 211.784 293.197 213.256 293.197 215C293.197 216.744 292.597 218.224 291.397 219.44C290.213 220.64 288.725 221.24 286.933 221.24ZM283.909 218.072C284.693 218.904 285.701 219.32 286.933 219.32C288.165 219.32 289.165 218.904 289.933 218.072C290.701 217.24 291.085 216.216 291.085 215C291.085 213.784 290.701 212.76 289.933 211.928C289.165 211.096 288.165 210.68 286.933 210.68C285.701 210.68 284.693 211.096 283.909 211.928C283.141 212.76 282.757 213.784 282.757 215C282.757 216.216 283.141 217.24 283.909 218.072ZM299.646 221L294.102 209H296.406L300.51 218.096L304.614 209H306.918L301.374 221H299.646ZM314.025 221.24C312.185 221.24 310.689 220.648 309.537 219.464C308.385 218.28 307.809 216.792 307.809 215C307.809 213.224 308.393 211.744 309.561 210.56C310.729 209.36 312.225 208.76 314.049 208.76C315.665 208.76 317.017 209.304 318.105 210.392C319.209 211.464 319.761 212.928 319.761 214.784C319.761 215.024 319.753 215.232 319.737 215.408H309.897C309.929 216.528 310.329 217.464 311.097 218.216C311.881 218.968 312.865 219.344 314.049 219.344C315.729 219.344 316.977 218.648 317.793 217.256L319.425 218.384C318.257 220.288 316.457 221.24 314.025 221.24ZM310.041 213.728H317.649C317.489 212.768 317.065 212.008 316.377 211.448C315.705 210.872 314.905 210.584 313.977 210.584C313.033 210.584 312.185 210.872 311.433 211.448C310.697 212.008 310.233 212.768 310.041 213.728ZM333.424 221.24C331.76 221.24 330.36 220.632 329.224 219.416C328.104 218.2 327.544 216.728 327.544 215C327.544 213.272 328.104 211.8 329.224 210.584C330.36 209.368 331.76 208.76 333.424 208.76C334.304 208.76 335.12 208.96 335.872 209.36C336.64 209.744 337.232 210.24 337.648 210.848V209H339.712V221H337.648V219.152C337.232 219.76 336.64 220.264 335.872 220.664C335.12 221.048 334.304 221.24 333.424 221.24ZM333.736 219.344C334.92 219.344 335.896 218.928 336.664 218.096C337.432 217.264 337.816 216.232 337.816 215C337.816 213.768 337.432 212.736 336.664 211.904C335.896 211.072 334.92 210.656 333.736 210.656C332.536 210.656 331.552 211.072 330.784 211.904C330.016 212.736 329.632 213.768 329.632 215C329.632 216.232 330.016 217.264 330.784 218.096C331.552 218.928 332.536 219.344 333.736 219.344ZM345.661 226.016H343.597V209H345.661V210.848C346.077 210.24 346.661 209.744 347.413 209.36C348.181 208.96 349.005 208.76 349.885 208.76C351.549 208.76 352.941 209.368 354.061 210.584C355.197 211.8 355.765 213.272 355.765 215C355.765 216.728 355.197 218.2 354.061 219.416C352.941 220.632 351.549 221.24 349.885 221.24C349.005 221.24 348.181 221.048 347.413 220.664C346.661 220.264 346.077 219.76 345.661 219.152V226.016ZM346.645 218.096C347.413 218.928 348.389 219.344 349.573 219.344C350.757 219.344 351.733 218.928 352.501 218.096C353.269 217.264 353.653 216.232 353.653 215C353.653 213.768 353.269 212.736 352.501 211.904C351.733 211.072 350.757 210.656 349.573 210.656C348.389 210.656 347.413 211.072 346.645 211.904C345.877 212.736 345.493 213.768 345.493 215C345.493 216.232 345.877 217.264 346.645 218.096ZM360.801 226.016H358.737V209H360.801V210.848C361.217 210.24 361.801 209.744 362.553 209.36C363.321 208.96 364.145 208.76 365.025 208.76C366.689 208.76 368.081 209.368 369.201 210.584C370.337 211.8 370.905 213.272 370.905 215C370.905 216.728 370.337 218.2 369.201 219.416C368.081 220.632 366.689 221.24 365.025 221.24C364.145 221.24 363.321 221.048 362.553 220.664C361.801 220.264 361.217 219.76 360.801 219.152V226.016ZM361.785 218.096C362.553 218.928 363.529 219.344 364.713 219.344C365.897 219.344 366.873 218.928 367.641 218.096C368.409 217.264 368.793 216.232 368.793 215C368.793 213.768 368.409 212.736 367.641 211.904C366.873 211.072 365.897 210.656 364.713 210.656C363.529 210.656 362.553 211.072 361.785 211.904C361.017 212.736 360.633 213.768 360.633 215C360.633 216.232 361.017 217.264 361.785 218.096ZM373.878 221V209H375.942V211.328C376.166 210.592 376.598 210 377.238 209.552C377.894 209.104 378.582 208.88 379.302 208.88C379.654 208.88 379.966 208.912 380.238 208.976V211.112C379.95 210.984 379.574 210.92 379.11 210.92C378.278 210.92 377.542 211.28 376.902 212C376.262 212.72 375.942 213.736 375.942 215.048V221H373.878ZM387.573 221.24C385.765 221.24 384.261 220.64 383.061 219.44C381.877 218.224 381.285 216.744 381.285 215C381.285 213.256 381.877 211.784 383.061 210.584C384.261 209.368 385.765 208.76 387.573 208.76C389.365 208.76 390.853 209.368 392.037 210.584C393.237 211.784 393.837 213.256 393.837 215C393.837 216.744 393.237 218.224 392.037 219.44C390.853 220.64 389.365 221.24 387.573 221.24ZM384.549 218.072C385.333 218.904 386.341 219.32 387.573 219.32C388.805 219.32 389.805 218.904 390.573 218.072C391.341 217.24 391.725 216.216 391.725 215C391.725 213.784 391.341 212.76 390.573 211.928C389.805 211.096 388.805 210.68 387.573 210.68C386.341 210.68 385.333 211.096 384.549 211.928C383.781 212.76 383.397 213.784 383.397 215C383.397 216.216 383.781 217.24 384.549 218.072ZM401.744 221.24C400.08 221.24 398.68 220.632 397.544 219.416C396.424 218.2 395.864 216.728 395.864 215C395.864 213.272 396.424 211.8 397.544 210.584C398.68 209.368 400.08 208.76 401.744 208.76C402.624 208.76 403.44 208.96 404.192 209.36C404.96 209.744 405.552 210.24 405.968 210.848V209H408.032V221H405.968V219.152C405.552 219.76 404.96 220.264 404.192 220.664C403.44 221.048 402.624 221.24 401.744 221.24ZM402.056 219.344C403.24 219.344 404.216 218.928 404.984 218.096C405.752 217.264 406.136 216.232 406.136 215C406.136 213.768 405.752 212.736 404.984 211.904C404.216 211.072 403.24 210.656 402.056 210.656C400.856 210.656 399.872 211.072 399.104 211.904C398.336 212.736 397.952 213.768 397.952 215C397.952 216.232 398.336 217.264 399.104 218.096C399.872 218.928 400.856 219.344 402.056 219.344ZM417.269 221.24C415.461 221.24 413.957 220.64 412.757 219.44C411.573 218.24 410.981 216.76 410.981 215C410.981 213.24 411.573 211.76 412.757 210.56C413.957 209.36 415.461 208.76 417.269 208.76C418.485 208.76 419.573 209.048 420.533 209.624C421.509 210.2 422.269 210.984 422.813 211.976L421.013 212.984C420.661 212.28 420.157 211.72 419.501 211.304C418.861 210.888 418.117 210.68 417.269 210.68C416.037 210.68 415.029 211.096 414.245 211.928C413.461 212.76 413.069 213.784 413.069 215C413.069 216.216 413.461 217.24 414.245 218.072C415.029 218.904 416.037 219.32 417.269 219.32C418.117 219.32 418.861 219.112 419.501 218.696C420.157 218.28 420.661 217.72 421.013 217.016L422.813 218.024C422.269 219.016 421.509 219.8 420.533 220.376C419.573 220.952 418.485 221.24 417.269 221.24ZM427.551 221H425.487V203H427.551V210.848C428.367 209.456 429.639 208.76 431.367 208.76C432.727 208.76 433.823 209.2 434.655 210.08C435.487 210.96 435.903 212.136 435.903 213.608V221H433.863V213.92C433.863 212.912 433.607 212.12 433.095 211.544C432.583 210.952 431.895 210.656 431.031 210.656C430.039 210.656 429.207 211.048 428.535 211.832C427.879 212.616 427.551 213.688 427.551 215.048V221Z" fill="#3C3C3C"/>
</svg>
